<mxfile host="app.diagrams.net" agent="Mozilla/5.0 (Windows NT 10.0; Win64; x64) AppleWebKit/537.36 (KHTML, like Gecko) Chrome/129.0.0.0 Safari/537.36 Edg/129.0.0.0" version="24.7.7">
  <diagram name="Page-1" id="9qKJrzikYuBCbYWc2uXa">
    <mxGraphModel dx="925" dy="516" grid="1" gridSize="10" guides="1" tooltips="1" connect="1" arrows="1" fold="1" page="1" pageScale="1" pageWidth="850" pageHeight="1100" math="0" shadow="0">
      <root>
        <mxCell id="0" />
        <mxCell id="1" parent="0" />
        <mxCell id="KIF3slcwYeVRn8h3nq5d-2" value="" style="rounded=0;whiteSpace=wrap;html=1;" vertex="1" parent="1">
          <mxGeometry x="60" y="90" width="750" height="380" as="geometry" />
        </mxCell>
        <mxCell id="KIF3slcwYeVRn8h3nq5d-4" value="" style="shape=image;imageAspect=0;aspect=fixed;verticalLabelPosition=bottom;verticalAlign=top;image=data:image/jpeg,/9j/4AAQSkZJRgABAQEAAAAAAAD/4QAuRXhpZgAATU0AKgAAAAgAAkAAAAMAAAABAAAAAEABAAEAAAABAAAAAAAAAAD/2wBDAAoHBwkHBgoJCAkLCwoMDxkQDw4ODx4WFxIZJCAmJSMgIyIoLTkwKCo2KyIjMkQyNjs9QEBAJjBGS0U+Sjk/QD3/2wBDAQsLCw8NDx0QEB09KSMpPT09PT09PT09PT09PT09PT09PT09PT09PT09PT09PT09PT09PT09PT09PT09PT09PT3/wAARCAGQAZADASIAAhEBAxEB/8QAHwAAAQUBAQEBAQEAAAAAAAAAAAECAwQFBgcICQoL/8QAtRAAAgEDAwIEAwUFBAQAAAF9AQIDAAQRBRIhMUEGE1FhByJxFDKBkaEII0KxwRVS0fAkM2JyggkKFhcYGRolJicoKSo0NTY3ODk6Q0RFRkdISUpTVFVWV1hZWmNkZWZnaGlqc3R1dnd4eXqDhIWGh4iJipKTlJWWl5iZmqKjpKWmp6ipqrKztLW2t7i5usLDxMXGx8jJytLT1NXW19jZ2uHi4+Tl5ufo6erx8vP09fb3+Pn6/8QAHwEAAwEBAQEBAQEBAQAAAAAAAAECAwQFBgcICQoL/8QAtREAAgECBAQDBAcFBAQAAQJ3AAECAxEEBSExBhJBUQdhcRMiMoEIFEKRobHBCSMzUvAVYnLRChYkNOEl8RcYGRomJygpKjU2Nzg5OkNERUZHSElKU1RVVldYWVpjZGVmZ2hpanN0dXZ3eHl6goOEhYaHiImKkpOUlZaXmJmaoqOkpaanqKmqsrO0tba3uLm6wsPExcbHyMnK0tPU1dbX2Nna4uPk5ebn6Onq8vP09fb3+Pn6/9oADAMBAAIRAxEAPwDkfDPhm78ValJZWMkEcscRmLTsQCAQOwPOWFdR/wAKZ1//AJ/NM/7+Sf8AxFHwY/5G66/68X/9GR17XQB4p/wpnX/+fzTP+/kn/wARR/wpnX/+fzTP+/kn/wARXtdFAHin/Cmdf/5/NM/7+Sf/ABFH/Cmdf/5/NM/7+Sf/ABFe10UAeKf8KZ1//n80z/v5J/8AEUf8KZ1//n80z/v5J/8AEV7XRQB4p/wpnX/+fzTP+/kn/wARR/wpnX/+fzTP+/kn/wARXtdFAHin/Cmdf/5/NM/7+Sf/ABFH/Cmdf/5/NM/7+Sf/ABFe10UAeKf8KZ1//n80z/v5J/8AEUf8KZ1//n80z/v5J/8AEV7XRQB4p/wpnX/+fzTP+/kn/wARR/wpnX/+fzTP+/kn/wARXtdFAHin/Cmdf/5/NM/7+Sf/ABFH/Cmdf/5/NM/7+Sf/ABFe10UAeKf8KZ1//n80z/v5J/8AEUf8KZ1//n80z/v5J/8AEV7XRQB4p/wpnX/+fzTP+/kn/wARR/wpnX/+fzTP+/kn/wARXtdFAHin/Cmdf/5/NM/7+Sf/ABFH/Cmdf/5/NM/7+Sf/ABFe10UAeKf8KZ1//n80z/v5J/8AEUf8KZ1//n80z/v5J/8AEV7XRQB4p/wpnX/+fzTP+/kn/wARR/wpnX/+fzTP+/kn/wARXtdFAHin/Cmdf/5/NM/7+Sf/ABFH/Cmdf/5/NM/7+Sf/ABFe10UAeKf8KZ1//n80z/v5J/8AEUf8KZ1//n80z/v5J/8AEV7XRQB4p/wpnX/+fzTP+/kn/wARR/wpnX/+fzTP+/kn/wARXtdFAHin/Cmdf/5/NM/7+Sf/ABFH/Cmdf/5/NM/7+Sf/ABFe10UAeKf8KZ1//n80z/v5J/8AEUf8KZ1//n80z/v5J/8AEV7XRQB4p/wpnX/+fzTP+/kn/wARR/wpnX/+fzTP+/kn/wARXtdFAHin/Cmdf/5/NM/7+Sf/ABFH/Cmdf/5/NM/7+Sf/ABFe10UAeKf8KZ1//n80z/v5J/8AEUf8KZ1//n80z/v5J/8AEV7XRQB4p/wpnX/+fzTP+/kn/wARR/wpnX/+fzTP+/kn/wARXtdFAHin/Cmdf/5/NM/7+Sf/ABFH/Cmdf/5/NM/7+Sf/ABFe10UAeKf8KZ1//n80z/v5J/8AEVy/ibwzd+FdSjsr6SCSWSITBoGJABJHcDnKmvpOvFPjP/yN1r/14p/6MkoAPgx/yN11/wBeL/8AoyOva68U+DH/ACN11/14v/6Mjr2ugAooooAKKKKACiiigAooooAKKKKACiiigAooooAKKKKACiiigAooooAKKKKACiiigAooooAKKKKACiiigAooooAKKKKACiiigAooooAKKKKACiiigAooooAKKKKACvFPjP8A8jda/wDXin/oySva68U+M/8AyN1r/wBeKf8AoySgA+DH/I3XX/Xi/wD6Mjr2uvFPgx/yN11/14v/AOjI69roAKKKKACiiigAooooAKKKKACiiigAooooAKKKKACiiigAooooAKKKKACiiigAooooAKKKKACiiigAooooAKKKKACiiigAooooAKKKKACiiigAooooAKKKKACiiigArxT4z/8AI3Wv/Xin/oySva68U+M//I3Wv/Xin/oySgA+DH/I3XX/AF4v/wCjI69rrxT4Mf8AI3XX/Xi//oyOva6ACiiigAooooAKKKKACiiigAooooAKKKKACiiigAooooAKKKKACiiigAooooAKKKKACiiigAooooAKKKKACiiigAooooAKKKKACiiigAooooAKKKKACiiigAooooAK8U+M/wDyN1r/ANeKf+jJK9rrxT4z/wDI3Wv/AF4p/wCjJKAD4Mf8jddf9eL/APoyOva68U+DH/I3XX/Xi/8A6Mjr2ugAooooAKKKKACiiigAooooAKKKKACiiigAooooAKKKKACiiigAooooAKKKKACiiigAooooAKKKKACiiigAooooAKKKKACiiigAooooAKKKKACiiigAooooAKKKKACvFPjP/wAjda/9eKf+jJK9rrxT4z/8jda/9eKf+jJKAD4Mf8jddf8AXi//AKMjr2uvFPgx/wAjddf9eL/+jI69roAKKKKACiiigAopryLGhd2VVHUk4AqOG6gud3kTRS7ThtjhsfXFAE1FFFABRRRQAUUUUAFFFFABRRRQAUUUUAFFFFABRRRQAUUUUAFFFFABRRRQAUUUUAFFFFABRRRQAUUUUAFFFFABRRRQAUVDcXdvaIHuZ4oUJ2hpHCgn0ye/BoguYLpC9vNHMoOC0bBgD9R3oAmooooAKKKKACvFPjP/AMjda/8AXin/AKMkr2uvFPjP/wAjda/9eKf+jJKAD4Mf8jddf9eL/wDoyOva68U+DH/I3XX/AF4v/wCjI69roAKKKKACiiq97eW+nWkl1dyrFDGMu7dAOlG4HjnxH1+7v/Edxp0c8gtLdggiBwC2OenXnPWvS/CXhq08OaaBbLIJZ0RpjIeSwHp26nivHtRP9s+N7iTTw06T3e5CoJyC3X6V9ACu3E+5ThBaaanPS96TkzhviVJqOn6dHqen6ncWwRlhaGM4DZz82fWuBu/Eviaxt7SZtZuGS6i81CHzj5ipB9wVNeh/Fb/kTj/18J/WvO762Nz8PNLvMZNrdS25PoG+cD88/nWmFS5FzJPWxFa6k7Poavgjxdqlz4ts4NR1G4mgm3JtdsjcVOP1xVbxZ4o12w8Vahbw6ncxxRzHYitgAdR+HNcpY3T2N/b3UZIeGRZAR7HNdN8SgJPFRukVgl1bxyqSMZGMfj0rd0oKstNGvxMlOThvqmeteGbe6g0SBry/kvZJgJfNkXBAYA7foK5f4kX+qaEsN7Y6tNCs7iMW6xrtGASTk5Oeldlon/IC0/8A69o//QRXnXxjuT5+mWoPyhXkI/ID+Rrz6C5qyR1VXancq3d94us/Cdvrra7uhm24jCDcM5A52+1ZGmePNfOrWgn1OV4mmQOpVcEZ57eldTqNu03wTt9nPlxpJ+Hmf/XrywEggg4I5BHau+hCNSMrpaNnNUk4tWbPp6vN/iJ42vtI1BdN0uXyXEYaWTaCRnpjPt/k132mXS3umWtyrBhLCr5HuAa8h+K1hLb+KBdsP3VxEu1vQgYx+ma4cNCMqqjI6a0moXRS0S78V+JryS3sdXuzKibyGumQYzj8+ary+KPEui6lLby6rdGa3kKMryGQEg4PXqKx7C/udMvEurOVopUPDA9f8RXY6LH4c8Y6m0usS3FpqczBmWNwIpT/ALOVOM9cE16NSKptuUU426I5YtySV7M9a02SWbS7WS4IMzwozkf3ioz+ua81+IN/qvhzU1ez166zdlpPs+OIk7YP1yO3SvUgoVQqgBR0A7V438WbrzvFMUGAPJt1GfUkk/1rzsKlKrZrQ6qztDzI7/VfFmm6FY6pNrUjQXpOxVPzDHrkfyzUHh7xprL+IdPW91S4e2edVkVm4IJxyBW74qQ3Hwo0Sdwu+LygCp7bCo/QD/61ecQymGeOUdUYMPwrupQjUg7pXu0cs24yWr6H03RUdtMLi2imXpIgcfiM1JXkHoBXH+P4dQt9Km1Sx1a4s1toxmGMcSEtjOc8df0rsK4X4tTrH4WiiLYeW5XA9QAc/wBK0oK9RLzIqO0WzktGu/FetaRf6hb67IsdipZ0dzubCluOO+COaxP+E28Rc/8AE3uuf9quu+G0Yl8J+IYwCWZCv1zG1ea16lKMZTlFpaNdDinJqKab1Povw5eHUPDun3TEs8tuhZieScc/rmsP4ijUINC/tHTtRltTaHMiRkjzQxUDP0P8zT/hpdfafBVqp6wM8Z/76yP0Iqb4i/8AIi6l/up/6MWvOUeWty+Z2XvTv5HkP/CZeIMk/wBsXnI/56HFdJqdp480zT5r281KZLaFQzMtyOckDjH1rga9y8YlW+G10VxtNvERj6rXdiLQlFJLV9jlpXmm23ocP4c+Juq297BBqkq3NqxVGZkG9R3ORjJ+ua9jzXzFX0hoxZtEsWkJLG3jLE+u0VhjaUYNOKtc1w83JNM8e8S614h8O+ILiyGuXUvl4YNu4wRnoc9jWz8Pb/W/EeryPda1c+VabZGiPIlyTwfQce9YXxMGPHF57pH/AOgCtn4Oqf7W1Fs8CFRj/gX/ANat5xj9X57K9kZRb9ra7tc9arkdZ+JGi6NdSW2ZriZByIVBUH0yT/LNdaelfM95u+2TeZnf5jbs+ua5MLRVWT5uhvWqOCVj1OD4w2Dy4uNNuI0/vI4Y/kcfzrpvDvjPTPE00sNg0oljXeySJt4zjr09Pzry+HUNO1zwmmkeRb2uqQlfKmKqonA4wXPQ4OeeOK7L4a+FbvQ/td1qEKLJOqLC6ShwU6nocYPH5VdalTjF6Wa2XcmnOba1ujq9f0K18Raf9jvd/lBg42Ng5AI/rXilld3fhHxc8EU7FYLjypFDkK6hu+OxwDXvteBeOLWe18X6i8sTIskxdGI4YHkUYP3m4PZodfS0ke/UVnaJq9trempdWk6TDhXZQQA+ASOfrWjXE1Z2N07hRRRQMK8U+M//ACN1r/14p/6Mkr2uvFPjP/yN1r/14p/6MkoAPgx/yN11/wBeL/8AoyOva68U+DH/ACN11/14v/6Mjr2ugAooooAKr3tnb6haSW13EssMgw6HoRViijYD581Jf7G8ZXUWns8CQXZVAjEEAN/KvoLqK8U+I/h+503xHPfrG7W1y3mCQDIDdxntXpXg/wAT23iPTR5Hm+dboizbx/ER69+hNd2K9+nCa7anNR92TizN+Kv/ACJrf9fEf9a4rw9ANQ+G2vW53FraVLhAD0OP8FNdf8So9S1LT49MsNMnuVZlmaaPopGRtx6/jWV8OPD2p2Ump22p2lxbW91b7MuMAnp+eGP60qclGhvqncJpurtpY8wro/ElydS8P6BeHkpA1q590bj/AMdYGo5PAviJHYLpVwyg4BAHPpVk+G/Ez6OmmnRpzHHOZ1cryCVAI69DgGu6dSEmmmtPPyOaMZK6aep7To6GPRbFT1EEYP8A3yK8g+KlwZfGDx7iRDCigZ6Z5/rXr1kJLbRYAY2aWO3UbOhJC9PzryLxF4W8Ta1rt1qJ0aWLz2BCCVG2gADrn0FcGDaVVyk7HVXTcEki7H4vj/4V8dH/ALMvmb7KY/PEf7v1zn0Fef171oem3EXgGHT7iIpcfZHiaNuoJBGP1ryc+APEofb/AGTLn2dCPzzXVh61NOS2177mNWnJpPfQ9Z8B3QuvBemspyUj8s5/2SV/pWX418UaBbzvo+tWlxPlA+6JV+XPTBJGDT/h3batpOnPpeqabJAsbNIkxdSDkj5cDv1Ncr468J6/qXiK51CKwM0LkKhhIJ2gYGVznP8AniuWEIOs1J2WtjaUpKmrLU5/VfCc8GmRaxp4e40ycFlYj54xkj5gOnTqM1gI7I4ZSVZTkMDjFdlYyeMdM0WXSIdJuTayh1YNasx+YYPNZ+neAfEGoTqh0+a3jJ+Z5hsx+fU13wqqKfO1bpqczhdrlTPZPCt/JqfhjT7ubHmSQjdgdSOP6V4x48u2u/Geos2B5cnlDHoox/SvZ1ibw74ajisrV7trWJVSFDy56HnHuTXjl74S8S317PdPpN0XmkZznk8nP41xYRxVRybSXQ6K6bikldl3UPFcF34Ct9EFlcrJCqETEDaSD/I5NcdXtsui3UvwtGmC2ZLv7Io8kdd4IOPqSP1rzD/hBvEe3P8AZFxj8P8AGunDVaaUlote5jVpzunvoey+Drtr3wlpkz43GBVOP9n5f6Vt1xHw4TWLGwfTNU0+WCGIF4pZD1yeV/XP59e3b15dVJTdjtg7xVxBXmPxjuhs0y1Gd2XkI/ID+ten15H470rXvEXiBng0a4ENsphRsgiQBid345HFa4WyqJt2SM69+RpFDwL4sh8N2t5FJYXF19oYH90AQMDp+Oa46TAkYAEDJwCMYr2D4X6NfaPY6gmo2slvJJIpUOOoAPSuE1PwPr39rXiw6fc3EYmfbLsx5gzw3Pr1713061NVZ628+5zThLkR2HwduHbTNRgLZSOVWVfTcDn/ANBH5V0PxE/5EXU/91P/AEYtcj8P9K17w7rTfatIn+z3SiN3LACPnO4+vf0610/xCN/ceHm0+w02a8N3wzxf8strKwyMc5wR26Vx1bfWE09LpnRC/srPex4dXd6r8Qk1Lwo2ippkyEwpEJTLu+7jnGO+39a50+D/ABAOuj3v4RE16v4Y13V53tNPvfD11aRJEEa5kc4yq+m0dSPXvXXiakHaSSdvMwoxlqtr+R5d4X8JX3iHUoVFvKloHBmmZcKF7gE9SR29/SvfVAVQAAAOwpcUtefXryrNNq1jqp01BWR4Z8Tv+R4u/wDcj/D5BW18Hcf2rqXr5K/lk1Q8UeH/ABH4h1+fUBok0IcBQodW6DH64rT8BaRrvhrWGN1o0xhugsTSeYuIhn7xxnP6V3TlH6ty3V7I5op+1vZ2ueqV5L4m0vw74k1TdoeqRJqc8hDQyK4WRj7kcHP4c/hXqtyZEtpGhUPKEJRc43HHA/OvCn8KeJtM1BLgaXdedHIJFaEbwCDnqtcuFSu3zWa2Nq17JWuY2paZd6RevaX0DQzIeVYcH3B7g+or0f4VeIry8mm0i5fzIYYTLGzfeX5gCM+nzVheJZfFXiwWy3mgTxfZy20x20i53Y65/wB0V03wz8J3mkvcalqMTQSSp5UcTDBC5BJI7cqP5966sRUjOj79ubyMKUWp+7ex6JXgPjm7nuvF+oJNI7LFMURSeABXteu67aeHrAXl8XERcJlFyckE/wBK8YsbK68Y+MXnghYRz3JkkbHCLnPPvisMH7rc3skbV3dKK3Z7PoOkW+jaVFb21utvuAeRFJI3kAHqfatOiiuJtt3N0rIKKKKBhXinxn/5G61/68U/9GSV7XXinxn/AORutf8ArxT/ANGSUAHwY/5G66/68X/9GR17XXinwY/5G66/68X/APRkde10AFFFFABRRRQA2SNJUKSIrqeqsMg1HBZ29ruNvBFEXPzeWgXd9cVNRQAUUUUAFFFFABRRRQAUUUUAFFFFABRRRQAUUUUAFFFFABRRRQAUUUUAFFFFABRRRQAUUUUAFFFFABRRRQAUUUUAFFFFAEM9tBdxiO5hjmQHIWRQwz+NOgt4baPZbxRxJ12ooUfpUlFABRRRQAUUUUAFeKfGf/kbrX/rxT/0ZJXtdeKfGf8A5G61/wCvFP8A0ZJQAfBj/kbrr/rxf/0ZHXtdeKfBj/kbrr/rxf8A9GR17XQAUUUUAFFFFABRRRQAUUUUAFFFFABRRRQAUUUUAFFFFABRRRQAUUUUAFFFFABRRRQAUUUUAFFFFABRRRQAUUUUAFFFFABRRRQAUUUUAFFFFABRRRQAUUUUAFFFFABXinxn/wCRutf+vFP/AEZJXtdeKfGf/kbrX/rxT/0ZJQAfBj/kbrr/AK8X/wDRkde114p8GP8Akbrr/rxf/wBGR17XQAUUUUAFFFFABRRRQAUUUUAFFFFABRRRQAUUUUAFFFFABRRRQAUVn6prmm6NF5moXkUA6gMfmP0Ucn8K4rU/i9ZQ5XTbGW4b+/KfLX8uSf0rSnSnP4URKpGO7PRM0teK3nxV8QXBP2f7NbL28uPcf/Hs1kS+OPEc2S2r3Az/AHCF/kK6Y4Go97IxeJgj6Bor58PivxHEqSNql+qSAtGzO2HAOOM9QDxxVmD4heJbYgjU2cf3ZI1bP5im8BPo0H1mPY96ozXkNj8XtTiYC9srW4UdShMbH+Y/Sus0r4n6HqJVLh5LKQ8YnX5c/wC8OPzxWE8LVhujSNaD6nZUUyGeO4iWSGRJI2GVZDkH8RT6wNQooooAKKKKACiiigAooooAKKKKACiiigAooooAKKKKACiiigArxT4z/wDI3Wv/AF4p/wCjJK9rrxT4z/8AI3Wv/Xin/oySgA+DH/I3XX/Xi/8A6Mjr2uvFPgx/yN11/wBeL/8AoyOva6ACiiigAooooAKKKKACiiigAooooAKKKKACiiigAoorC8T+KbPwvY+dct5k758mBT8zn+g9/wCZpxi5NJbickldmjqGpWuk2b3V9OkMKdWY9/Qep9hXl/iX4q3V0Xt9EQ2sOcee4zI30HRR+Z+lchr3iK+8R3xub6UkA/u4l+5GPQD+vU1mV6tDBxjrPV/gcVTEN6R0Q+4uJbqZpriV5ZHOWdyWJ/E0yiiu7Y5gpQjPnarNtGTgZwPU+g96f9lnFmLvyz9nLlPMB6EYzn0HI5OBz1zTrWa5ikeO0lkR7lfIZUOPMVuNp9icUr6aDtrqQs5wAzkqowoJyF+npk0VYhln0nUS/lRC4t2ZGjmQOoblSCvQ45/HmqwGABzx60AyeeyuLWGCWaCSNLhd8TMpAYZxxUNPkmllSNJJGdYxtQMSdoznj2yaZQr9RO3Q0dH8Q6loM3mafdvECcsmco31U8H+depeGPibZauyW2qKtldkgBs/u5D9T90+x/OvHKKxq4aFVarXuaU6soeh9PUV4x4M+IVxopjsdUZp9P4VXPLwfT1X27dvQ+xW9xFd26T28iyRSKGR1OQwNePWoypOzO+nUU1dEtFFFZGgUUVz/iTxLDosRjjxJdMPlTPT3Pt7d6mc1BXZpSpTrTUIK7ZLrms/ZGisbQhr+5IWMddgP8R9hz+VakERggjj3M5VQNzHJOO5rkvBmny3U02tXrM0shKxlu/qfp2H0NdnUUpOS5n1NsVThSkqUXdrd+f/AABaKKK1OUKKKKACiiigAooooAKKKKACvFPjP/yN1r/14p/6Mkr2uvFPjP8A8jda/wDXin/oySgA+DH/ACN11/14v/6Mjr2uvFPgx/yN11/14v8A+jI69roAKKKKACiiigAooooAKKKKACiiigAooooAKKKinnjtoJJ53VIolLuzHhQOSfyoAy/EviO28NaTJeXPzOflhiBwZH7D2HcnsK8G1XVbvWtQlvb6QyTSH8FHoB2A/wA881oeLvEk3ibWnuSWW2jylvGeNqev1PU/l0ArDr2cLh1TjzPdnn1qvO7LZBUltbzXl1Fb2sTTTyttSNByx/zzntUddLoczaH4R1LW4flvLmYafbSDrECNzsPfHf1AroqTcVpuZQSb12I5fDenacxh1rxDb212v37e1ga4ZD6MRgAj0qM6DpVzgad4ns3kPSO8he2/DccisWKB5IZpEAKwqHclgCMnHfliSe2T3pYrWe4jmeGGSRIV3yMiFgozjJx25qeWW7l+Virx6I07iw1Hwwvm3VvPBLI6hGwslrMnXDMOH5wQp474zWP61oaXrl/o+UtJgbd+Htph5kL+uUPH4jB960E0/TfEf/IHCadqZ66fLJ+5mP8A0xc9Dn+E+vB70czhrL71+oWUlp9xh2zxRXEbzQLPED80Rcpu49RyMcHj0qMZwMnJ9fWnyxSwTvBcRPFNGdrxuNrKfQim1r5mb7CZHIzyOvtS1LLdSTW1vbssQS3DBGVAGbccncf4sds9BUVAPyCiiigArsPAfjV/D94tleuzabM3OesLH+Ie3qPxHPB4+ioqU1Ui4yKjJxd0fTaSJIivGysjDIYHIIpxNeW/Dzxqtrp0un6o7lLZd1vJgtx/c+o6j2yOABUmu+L7vVd0Nvugtj1VfvN9T/QfrXzeKnHDycZPU+gwOCq4yzirLuzoPEXjOO0DW2mMsk/Rpeqp9PU/pXLaJpM/iLVf3rO0ed08hPP0z6n/AOvVLTNNuNVvEt7ZcsfvE9FHqa9V0nSoNHsUtoB05ZiOWPcmuCmp4iXNLZHs4iVHLaXs6Ws31LkMKW8KRRqFRFCqB2AqSiivSPm223dhRRRQAUUUUAFFFFABRRRQAUUUUAFeKfGf/kbrX/rxT/0ZJXtdeKfGf/kbrX/rxT/0ZJQAfBj/AJG66/68X/8ARkde114p8GP+Ruuv+vF//Rkde10AFFFFABRRRQAUUUUAFFFFABRRRQAUUUUAFec/FfxCbWyi0e3ciS4/eTEdoweB+JH6e9eiMwRSzEBQMkmvnbxJqx1vxBeXxJKSSERg8YQcL+gFdeCp89S72RhiJ8sbLqZlFFFeyeeFb8wY/DayI+6urShvqY+KwK39PJvfAutWe75rO4hv0X1U/I/5DBrKr0fmv8jSHVeRgoQkiOUV9rBtrjIPsfY9KnGo3MZuvs0jWyXWRJFAxRApOdoGeg6d+Kr0Vo0nuZ3aCkIB6/WlopgdBb6pa69All4hl8u6UbbXVMfMnok395P9rqP1rH1HTrrSb57O+i8uZBkYOVdT0ZT3U+v9eKr1uaZqVtf2SaLrshW2B/0O9Iy1m57H1jPQjt7dRm04arbt/kaJqej3MOirGo6fdaTqEtnex+XPGecHIYHoynuD1z/Wq9WmmrozaadmFFS29rNctiGNmHduwrUttEUYa4fcf7q9K5MRj6GH+N69lqehhMrxOKt7OOnd6GRFFJM+2NGZvQDpWra6J0a5b/gCn+ZrUiiSFQsaBV9AKZLcpG4jGXlIyFH9fQV4OIzetXvGirI+owmQYfDWniHzPt0/4JJHGkSBI1CqOgAq9pml3Gr3SwWqZJ+8x6KPU1k3V8lnGDLhpSOFHf8A+tXWfCjXmuLu+0+fbucC4jwOmMKw/UH865aGBq1ourL4V951Y7NaWESo0vi/BHc6LokGiWgihG6RuXkI5Y1q0UV3JKKskfLTnKcnKTu2FFFFUSFFFFABRRRQAUUUUAFFFFABRRRQAV4p8Z/+Rutf+vFP/Rkle114p8Z/+Rutf+vFP/RklAB8GP8Akbrr/rxf/wBGR17XXinwY/5G66/68X/9GR17XQAUUUUAFFFFABRRRQAUUUUAFFFFABRRRQBz3jrUf7M8H6hKDh5I/KXB7t8v6Ak/hXgVeu/F+52aDZ246y3G76hVP9WFeQ/n+FevgI2p37s4MS7zt2Dev94fnQCD0IP0NexeALXTPEXhlLm+0bTjcxyNC7i2T59uPmxjgkEZ98/StDxN4E0zVNDng06xtbW8A3wyRRBPnHQEjsen45oeNjGfJJW1BYdtXTPDSQOpx9a2/B15FD4hjtp2/wBG1GNrGbBH3ZBgH/vrFUNNu30vVYpZrWOUxSbJra4jDBucMpB6Ec89iK7z4q21jpVrYWmnafaWzXTO7yxQqrgJjABA4yWB/AVrVnqqdt+pEIWvK+x55dWsthdz2k4xNbyNE/1U4/XGfxqIkDqQPqa6PxQP7VsrDxJGBm7UW14B/DcoMZ/4EoH5Vo/DGOG91+XTruwtby2eEzFpoVcxMCBkE9jnGPXBqva2pudttxezvPl7nF7x/eH50ZB6V9Ef8IroQ/5g2n/+A6f4V5z8SfCSWuqWl1pcEMFvNGY5FRdqq45BwPUE/wDfNc8cfTb97RG6wdSTUYK7fQ8+oALnaASTxgDOa2oNDjXmaRnP91eK63wh4Vi1ad2ZfKtIuGKfekb+7n6YyfcCuapnFLm5KK5n+B6Uciqwh7XEPlivmzC0y1fX9Kj0fUiIbqDjTbqQ8j/pg/qp7Z6Hj2qtHosNpIyTxsZkYqyv/CR2x/8Arr1DWV8M+GreNbqxgy/KKIwzNjvk/hyTVG21Twh4rkvJpI/Lmtow8zvmM7Om7IPIHGT247VwVqmKrJqDt3S21O3DSwWHkpyg2rbu17nFAYAAAAHAxUFzewWq5mkAP90dag8XXbweJ7+0tNsVtHIqxLF3XauMH3znj1qpZWpsiL27KqE5COofd9QeufSsY5ZGnFTxE99kt2ej/bUqz9nhYbbt7ImS6udROLdfJhBwZDyT/n/Jpk1/BYgw2uHlP3mJzj6+p/z7V6r4f8D2trAk+pIlxM6/6pl/dx56jHc+5/ACjxd4N0258L3o0/TbWC7jj82JoYQrErzt49QCMe9bUKdOUkpxtG+iX6nm4rHzgmqUuaXWT/RdDxOSRpHLuxZickmtnwbqJ0zxbp1xu2oZhG5PTa3yn8s5/CsQEEAjoRxSglCGUkFTwR2r6SUFyOK2sfM80ufmbu9z6eoqvp9x9s0+2uf+e0Syce4z/WrFfO7M9QKKKKACiiigAooooAKKKKACiiigAooooAK8U+M//I3Wv/Xin/oySva68U+M/wDyN1r/ANeKf+jJKAD4Mf8AI3XX/Xi//oyOva68U+DH/I3XX/Xi/wD6Mjr2ugAooooAKKKKACiiigAooooAKKKKACiiigDy74yud+kx9sSt/wCgV5lXpvxlQ79Jk7YlX/0CvMq9vB/wUebX/iM9X+HGoJpXw7v7+VC8dtcSyOF6kBVJx+Ga9BgniuoI54HV4pFDow6MpGQfyrzHwl/yR3Xfrcf+gCrPwm8QyS2b6Ldbv3IMlq56FO6fgTkex9q86vTV5T7M7KTekUuhl/FPwz9g1WLWrVMW93IqTgD7svZvowGPqPerfxkGbjRgoJO2bgf8Ar0fVdMttZ02awvE3wzLhh+oI9wQD+FcV8TZobaXTWndV+WQAnr/AA5qPrcoKLUeZq+nqbUMLCtPklLlT3Zwvh9misdR07UYZDp99FngDdFMvKOoP69O1dj8MtJTSrTU9WnkyQoj3AYACjc38x+VcPLrlvGCURnwM5PAr1LStDuLv4dRWiXC2NxeRCWSXZv2BjuIxx/Dx7Vk6uMm26i5Yvp5/md9ajl9GCjSlzSTWvl18jV8Ka02uaMs0xHno5SQAYwe36EUeLdP/tHw9coq5liXzY/XK8/qMj8ay/CPhifw5fXDvra3sVwgBi8sLhh0YfMexI/Kuu4rN07R5JO5zuslW9rSVrO6Pn2TXYduYY3fIyCflBr0n4WapHf6JdQnas8NwSyA9FYAqfxwfyrzTxbo50LxTfWQXbFv82HHTY/I/LkfhVPS9Sv9GvY77TZZIZQdgYDKv3KHsw6HH0PHWvRhltCNPmp7tbtmFfNsTiJclV6X2SPetf8ADOm+JbVINTgLmM5jkVtrofYj+XSvONX8GS+C7+DVNJ1SGXy24trrh5FPDJkcMCM5yB69a0B8StT/ALIJurW3trr/AJ6qxK4/3T39smtbwvoFlrEKa1fXi6nJKcjB3Ip9D6kehwB6VwLEVYXjT1WzfQ61g6cYqpiXbsur/wAjz/WLOw0K5W5sY2e3vAZbUNyIx3jz2KnjucYqp4dt5te8XabbS/OrTh3XoNq/Mf0XH416h8Q9It9S0mO0RFS7mkL2pAHzTKhO3/gSqR9Qtcp8H7AXGs3uoso2W8IiUnsznJ/HC/rXdRUFTlVesv62OKviKk2qUdIdl+p2Z8VhfiR/YLSAQG0GBj/lt97GfdO3tXV9a85ufh3LP4kfWk8QxpcNc/aUHkAhcHIH3uQAAPpXoqMGUEEEHuDXPVUVbl7a+pMG3e589eLNIOheKL+yC7YhJ5kOOmxuR+XI/CsivUfjBo4eCx1iNfmjb7PKR/dblT+DZH/Aq8ur18PU56SfU4KseWZ9EeFXMvhTSmPU2kX/AKCK1qyfCqGLwppSnqLSL/0EVrV4k/iZ6UdkFFFFSMKKKKACiiigAooooAKKKKACiiigArxT4z/8jda/9eKf+jJK9rrxT4z/API3Wv8A14p/6MkoAPgx/wAjddf9eL/+jI69rrxT4Mf8jddf9eL/APoyOva6ACiiigAooooAKKKKACiiigAooooAKKKydS1+205xD809033YIhlz/h+NJyUVqVCEpu0Ucp8X7bfoFnc94rjafoyn+qivLbfTZ7gbtvlx9dzcV634gstb1bQr25umit44YjNHaBd5Yrz8x9eO35V49cXU1yf3khI/ujgCu7CTrVIctOyS6vf7iKtPDUZc1V8z7Lb5v/I9O8OXGg6V4LuNIutdsRPc+Yz5kBCFhjH4YH61wz69dabfq9n5IltpMpIjb0bHoR1U9PoaxKWulZfTcuap7z/UwWY1YRcKXupnuun/ABD8PXdhBPPqVvbSyIGeGRsMjdwfoa4/4l6hpPiC1tLrTdXs5pbQtugEnzOrY5X1IIHHoTXnVFXDBxhNTi2c8sQ5KzRe0fT7fUtQSK9v7axtFIM0kz7crnoo7k/p1r0Pxn4wtoH0i88P6jaXKWkjLPaxy/6xGXGCO4wCM9iQa8yguZbV3e3kaNnRo2I7owwR9McVFWs6CqSTb0XQmNXlVktWdhNolpZeINJ17R7mG30S5uFmWaU4FqynLRN78EAfh2yfT/8AhOvDX/Qas/8Av5XjvhjXU02WbT9QjNxo9/8Au7qH+6TwJF/2hx0649QKbd6La6dqE6PepPaRviORf+Wg7fj246kHHFcOJVODtVbv0t1O7C0qtb+GtOreyOr+IjaV4lezvtH1G2nuYf3Mqo3JQ8g/gc/nVDRLG3h0d1v9UitNKjuv3jOQS020cKvrtxzzgdjXMXWps6eTar5UQ444J/wqhkkAEnapJAJ6Z/qcD8qiGEq14KNRuMei6/M6JYuhhJfuEpT6y6L0/wAz1d/APhnV5Fnh12Z4W52pcxsB9Dg4rbhvvDHgLSBax3cUaBi+wSeZLKx74HJJwPbjtXhZjQnJRc+uKAoX7qgfQV0rBaKPNouljz5Ypyk5NXb63Om8U+M7zxJrVrdW4+yxWcga0RiPlfOd7Hp2HsB6813kN1omkeHtQjg1awt7nWVluo90o8tXddpCsOqhwef0rx+tbIu/BxByZdMvOP8AZimH/wAWuf8AgVaVcPG0UtEv6/MiFR3berMURKiAbegxgc17H4K8S6NonhSysdR1ux8+NSdokzsBJIXPqAcfpXkSKhjmZ50iMa7lVgf3hzjaMdDznnA49aREaR1RQS7HCqO5q61FVVZuxEKjg723PbNf8S+F9d0K8059asgLiMqrF/ut1U/gQD+FeKGJkmMWVd1bbujO5W+h7g0ytvwdpx1PxZp1vt3IJhI4P91fmP54x+NTTpLDxbvdDlUdWSVtT3zT7f7Hp9tbf88Ylj49hj+lWKKK8R6s9EKKKKACiiigAooooAKKKKACiiigAooooAK8U+M//I3Wv/Xin/oySva68U+M/wDyN1r/ANeKf+jJKAD4Mf8AI3XX/Xi//oyOva68U+DH/I3XX/Xi/wD6Mjr2ugAooooAKKKKACiiigAooooAKKKKAEqCO0ghmkmjhjWWT77qoBb6nvViigE7DWUMpVgCpGCDXzt4k0k6J4gvLEghI5CYyecoeV/QivouvOfiv4eN1ZRaxboTJb/u5gO8ZPB/An9fauvBVOSpZ7MwxEOaN+x5PRSHODgZPYdM1Jcxxx3DpbzCeMfdl2FN3H908jByPwr2Tz7DKKmuxbCZRaLcKoRRItxjcJMfNjH8OemefWo44pZiwhjeQqpdgilsKOpOOgHr2pX0uFtbCxQy3D7IYpJZMFtsaljgck4HYDmnW1rLeOBCuR3bsKu6bZSqftLTPbIFPzIxVip68joCOPei51NY08iwURxrxuAxn6f41wVMXKpN0sOrvv0R6tHAwpwVbFPlXRdWSZtdJHH765IwT6f4V03gnVtM1mCfw54gghIum3wTY2kt2XPZh1U/h9eD65J6nk5pPz68EHpVRwMUnKTbl3/yM62YSnaEFywX2V+vc6Txb4JvfCswkLG5092xHcAcqeyuOx9xwfY1zlbl74z1rUdCOk3l2s1ucbndMyMAcgFu/IBz1461h11UlNRtU38jhqcrd47BRRRWhA+OIyRTSB41EQDFWfDNk4+UfxEdcDoOa39HS4m8NapBJaRx2rWM00NwI8NK0ckbEFv4gvIA7ZNYEdvLLDLMkbNFAAZWHRNxwM/U8VsaEzW+ieILxmPlLZizQFuDJK68Aeu1cnHasqu3zRpDcyrK7lsLpLm38vzFBA8xA68jH3TweCafpkt5aXQutPEvmWq+aWRd2xR1Y+wyBk+tQ28JuZliV4oywJDSuEUYGeSemcY+uBTA7LnBZcjBAOMj0Pt7VbSdyE2ixfxTLNHNcXEU8l1GJy0cgcjcTw+Ojeq9s16J8INIJkvNWkHAH2eP9Gb/ANlH515xaWkt9eRWtum+aZwiDpknivojQtJi0PRbXT4uRCmGYD7zdSfxJJrjxtTkhydX+R0YeHNLm6I0aKKK8k7gooooAKKKKACiiigAooooAKKKKACiiigArxT4z/8AI3Wv/Xin/oySva68U+M//I3Wv/Xin/oySgA+DH/I3XX/AF4v/wCjI69rrxT4Mf8AI3XX/Xi//oyOva6ACiiigAooooAKKKKACiiigAooooAKKKKACop4I7mCSCdFeKVSjqw4YHgj8qlooA+ffF3hubwzrT2xDNbSZe3kPO5PT6jofz6EVh+h7g8H0r6F8S+HLbxLpMlnc/K4+aGUDJjfsfcdiO4rwfVNHvNH1N7C8hKzocADow7EeoP+eeK9nDYlTjaT1R59Wi1L3epFLdJc2zCaBpb+ScyPePKWZ1IxsK9M553de1XbW2XT0+03TsjMMCNTgkHscdc+nT1qNEi0oB5gJLphlV6hf8/59aozTSXEheRizH9KyfPivdp3UOr7+SO6Kp4Jc9S0qnRdI+b8/ImvdRkvHKk7YxyEB/nUfmQfYBF9nb7UJdxuPM4KYxs2eued34Un2mX7KLXcPJEnm7dozuxjOeuMdunfGaRJIxBKjQh5GKlJd5Bjx146HPA56Y4rrp0oUoqMFa3Y4K1edabnUd2MpCQOpx25pakt7iW1kMkLlHKshYAHKsMEc+oJFamJHT4XiTf58TSBkITa+3a/ZjxyBz8vGfUVH049KWgNiS3lSJyZrdJ0IwVclce4I6H8/pVkR6ZPyLm5tG7rLF5qj6FcHH1FUqKGrjTsaUem6UcNca/EqjnbHZyu5+gOBn6ml1TVYZrSDTdMikg023cyASkGSeU8GR8cZxwAOgrMo/zzUcmt27j5tLJWFjfy5FfYj7SDtcZU/UelXL/UxfXF5L9itIvtLhx5ce0xY5+TnjPQ9c+1Uq7DwH4KfxBdre3qMumQtzn/AJbMP4R7ep/Ac8hVZRprnl0HCLk7I6L4W+FGhX+3L2PDuCtqrDop6v8Aj0Htk9CK9MpiIkaBI1CoowFAwAKfXh1ajqScmejCCgrIKKKKzLCiiigAooooAKKKKACiiigAooooAKKKKACvFPjP/wAjda/9eKf+jJK9rrxT4z/8jda/9eKf+jJKAD4Mf8jddf8AXi//AKMjr2uvFPgx/wAjddf9eL/+jI69roAKKKKACiiigAooooAKKKKACiiigAooooAKKKRiFUsegGaAIbm5hs7d57h1jjQZZielcjd6VN42f7TIPsdrGjC1coDIxP8AEc/w9OO9aVvY3Gv3KXmqI0dqhzBaN+jP6n27fnnoQAowBwO1Zq8nfodPMqK93WXft/wT538Q6BqHh7UGg1CM5YkpKOVlHqD/AE6isuvpPUdNtNWs2tb6BJoX6qw/Ueh9xXl3iX4VXVqXuNEc3UOc+Q5xIv0PRh+R+tezh8ZFpRlp+R5NWhK7ktTh7C8is/tHm2cNz5sDRr5hPyMf4hjvVWn3FvLazNDcRPFKhwyOCpH4GmV3K26OZ32CiiimIKKKKACiiigBUdkdXUkMpDKw7Ec/pSzTSTzvNM7SSyMXd2PLMeST7mr+j+HtS16by9PtHlAOGfGEX6seB/OvUvDHwystIKXOqMt7dgghcfu4z9P4j7n8q562Ip0t3r2NadKU/Q5PwZ8PbjWjHfaorwafwyoeHn+novv37eo9it7eK0t0gt41jijUKiKMBQKloryK1aVV3Z3U6agrIKKKKyNAooooAKKKKACiiigAooooAKKKKACiiigAooooAK8U+M//ACN1r/14p/6Mkr2uvFPjP/yN1r/14p/6MkoAPgx/yN11/wBeL/8AoyOva68U+DH/ACN11/14v/6Mjr2ugAooooAKKKKACiiigAooooAKKKKACiiigAooooAKKKKACiiigDP1TQ9O1qHy9Qs4p1xgFh8y/RhyPwritT+ENlNl9MvZbZuuyUeYv58EfrXotFaU6s4fCyJU4y3R4refCrX7Yn7P9mul/wBiTaf/AB7FZMngbxHExDaRcH/dw38jXv8Ailrpjjqi3szF4aDPnseDPEJ/5g93+MeKtQfD3xLckAaYyDu0kiLj8zXvVFN4+p2QlhY9zyGx+EOpysDe3ttbqeoQGRh/IfrXWaV8MND04q9wkl7KO85+X/vkcfnmuyorCeKqz3ZrGjBdBkMEdvEscMaRoowqoMAfgKfRRWBqFFFFABRRRQAUUUUAFFFFABRRRQAUUUUAFFFFABRRRQAUUUUAFeKfGf8A5G61/wCvFP8A0ZJXtdeKfGf/AJG61/68U/8ARklAB8GP+Ruuv+vF/wD0ZHXtdeKfBj/kbrr/AK8X/wDRkde10AFFFFABRRRQAUUUUAFFFFABRRRQAUUUUAFFFFABRRRQAUUUUAFFFFABRRRQAUUUUAFFFFABRRRQAUUUUAFFFFABRRRQAUUUUAFFFFABRRRQAUUUUAFFFFABRRRQAV4p8Z/+Rutf+vFP/Rkle114p8Z/+Rutf+vFP/RklAB8GP8Akbrr/rxf/wBGR17XXinwY/5G66/68X/9GR17XQAUUUUAFFFFABRRRQAUUUUAFFFFABRRRQAUUUUAFFFFABRRRQAUUUUAFFFFABRRRQAUUUUAFFFFABRRRQAUUUUAFFFFABRRRQAUUUUAFFFFABRRRQAUUUUAFFFFABXinxn/AORutf8ArxT/ANGSV7XXinxn/wCRutf+vFP/AEZJQAfBj/kbrr/rxf8A9GR17XXinwY/5G66/wCvF/8A0ZHXtdABRRRQAUUUUAFFFFABRRRQAUUUUAFFFFABRRRQAUUUUAFFFFABRRRQAUUUUAFFFFABRRRQAUUUUAFFFFABRRRQAUUUUAFFFFABRRRQAUUUUAFFFFABRRRQAUUUUAFeKfGf/kbrX/rxT/0ZJXtdeKfGf/kbrX/rxT/0ZJQAfBj/AJG66/68X/8ARkde11846Hrmo+B9eunhggN2ivaypMCwXDDP3WHIKYzkiuj/AOFza/8A8+emf9+5P/i6APa6K8U/4XNr/wDz56Z/37k/+Lo/4XNr/wDz56Z/37k/+LoA9rorxT/hc2v/APPnpn/fuT/4uj/hc2v/APPnpn/fuT/4ugD2uivFP+Fza/8A8+emf9+5P/i6P+Fza/8A8+emf9+5P/i6APa6K8U/4XNr/wDz56Z/37k/+Lo/4XNr/wDz56Z/37k/+LoA9rorxT/hc2v/APPnpn/fuT/4uj/hc2v/APPnpn/fuT/4ugD2uivFP+Fza/8A8+emf9+5P/i6P+Fza/8A8+emf9+5P/i6APa6K8U/4XNr/wDz56Z/37k/+Lo/4XNr/wDz56Z/37k/+LoA9rorxT/hc2v/APPnpn/fuT/4uj/hc2v/APPnpn/fuT/4ugD2uivFP+Fza/8A8+emf9+5P/i6P+Fza/8A8+emf9+5P/i6APa6K8U/4XNr/wDz56Z/37k/+Lo/4XNr/wDz56Z/37k/+LoA9rorxT/hc2v/APPnpn/fuT/4uj/hc2v/APPnpn/fuT/4ugD2uivFP+Fza/8A8+emf9+5P/i6P+Fza/8A8+emf9+5P/i6APa6K8U/4XNr/wDz56Z/37k/+Lo/4XNr/wDz56Z/37k/+LoA9rorxT/hc2v/APPnpn/fuT/4uj/hc2v/APPnpn/fuT/4ugD2uivFP+Fza/8A8+emf9+5P/i6P+Fza/8A8+emf9+5P/i6APa6K8U/4XNr/wDz56Z/37k/+Lo/4XNr/wDz56Z/37k/+LoA9rorxT/hc2v/APPnpn/fuT/4uj/hc2v/APPnpn/fuT/4ugD2uivFP+Fza/8A8+emf9+5P/i6P+Fza/8A8+emf9+5P/i6APa6K8U/4XNr/wDz56Z/37k/+Lo/4XNr/wDz56Z/37k/+LoA9rorxT/hc2v/APPnpn/fuT/4uj/hc2v/APPnpn/fuT/4ugD2uivFP+Fza/8A8+emf9+5P/i6P+Fza/8A8+emf9+5P/i6APa6K8U/4XNr/wDz56Z/37k/+Lo/4XNr/wDz56Z/37k/+LoA9rorxT/hc2v/APPnpn/fuT/4uj/hc2v/APPnpn/fuT/4ugD2uvFPjP8A8jda/wDXin/oySj/AIXNr/8Az56Z/wB+5P8A4uuc1zXNR8ca9avNBALt1S1iSEFQ2WOPvMeSXxnIFAH/2Q==;" vertex="1" parent="1">
          <mxGeometry x="80" y="250" width="60" height="60" as="geometry" />
        </mxCell>
        <mxCell id="KIF3slcwYeVRn8h3nq5d-9" value="" style="endArrow=classic;html=1;rounded=0;exitX=1;exitY=0.5;exitDx=0;exitDy=0;entryX=0;entryY=0.5;entryDx=0;entryDy=0;" edge="1" parent="1" source="KIF3slcwYeVRn8h3nq5d-4" target="KIF3slcwYeVRn8h3nq5d-10">
          <mxGeometry width="50" height="50" relative="1" as="geometry">
            <mxPoint x="170" y="300" as="sourcePoint" />
            <mxPoint x="220" y="250" as="targetPoint" />
          </mxGeometry>
        </mxCell>
        <mxCell id="KIF3slcwYeVRn8h3nq5d-10" value="" style="shape=image;imageAspect=0;aspect=fixed;verticalLabelPosition=bottom;verticalAlign=top;image=data:image/png,iVBORw0KGgoAAAANSUhEUgAAAooAAADwCAYAAACHUkUCAAATxXpUWHRSYXcgcHJvZmlsZSB0eXBlIGV4aWYAAHjarZppkiO3EYX/1yl8BOyZOA7WCN/Ax/f3qjkj9UiWQw5Pa5rTbLIKyHz5FlDP+dc/7/MP/hQL6SnVvPXWAn9KLz0N/uHh68/XYwzl/f711Ajp8+y355/7eQ+/jiHzmL9+bOfrMQ6er7+9wcrn+fn9+cfW5zr+uVD8eeH3T9ad9e/P6/xzoZy+no+fn5/+ed8ov9vO529an8t+Lv7rz8Uoxq5cL6cnnRxz4LvrLpkV5J4Hj5nvMef09ezIhS999z+v3fPzn78Ur54/r10Yn1fk76V4Qvu8oP1So8/zsf7y/I8LqkK/X1H88c/0/RfF4o+3/qF2926/93ztbpRGpdrz2dSPEr7/4oWTS+X3bY0v42/l3/Z+db6cLS46tunm5Gs9scdEtW8scccRbzzv44qLJZZ0kvGY0kr5fc6zpZ7W2xSVv8SbjPbsJztdWXQt83T6uZb43re/91vRufOOvDJFLhZ5xx++nj978n/5+nmhewVdCuxv6+NXg5MwzTLUOX3nVTQk3k9N61vf9+sJ33vzo7GZDta3zM4GR5hfl5g1/oat/PY587oayhO+RiPa/lyAEnHvymJipgOhxVxji8FSAhHU0enPYOUplzTpQKw17cj0p5JzozmedG/eY/F9barp62mohUbU3LLRGgaIZpVSwY8VB0Oj5lqeWmurVr32OlpupdXWmjVx1LBsxao1M3PrNjx78erNzd27j556hsJqb92e7r33Mbjp4NKDdw9eMcZMM88y62zTps8+xwI+q6y62rLlq6+x086b8d9t27N99z1OPEDplFNPO3b89DMuWLv5lltvu3b99jt+du3T1e9di7907q+7Fj9dU8fK+zr7rWs8bfbjElF0UtUzOpZKpOOmDgDopJ4Fj6UkdU49Cz0xFDXRtVjVnB3VMTpYTkz1xp+9+61zf9m3p5a/1bf0nzr3qHX/j849at2nc3/s2590bY9XUfLbIE2hahryhdh4wfEx72h1r9x2irWfXJvveVn+6rHuVKxxuXT27nG1wo6zx7pubfPObK09fhHc6aHyng0rbaMXrcZ6vDFMzk8OrwYVdIQ9O7yX77k+Trtnp8F+zr1aUbUz7WZjC9aPGSLOv5CeOtLyGlkFY7y3+Vhj7h3umqX1tH3Sxr7pQr7+VCslRyunWdhtUWH2sc9tOTYfNTHlXIZRn5FOnJ7XDgOpnm+NSkcC4j6OHH1/ZnID5sUAXes3jsb7R6k0rMXuKbV4z3AbPV7udmqdNYycxkZpa7F+ux9KgjEotkct+450zjrpUtBQVj+QY5h7tpGtp2l7JkPtbyo0q8biz3Gbp1HDcZtfwHJv4uJUbZvd06suNlo6fbW+QYez634RjLrrqgdGnLXaeGZDYwb/nZo3avX+EP7+4/PrE+hOnuwWcAQ/ZZZkrM5sr9psx5ozgzcm4jUYLUNoB6IJjmxUqsoQ1VUadMFMwkMzACMuMhetvpvpnNGWRjsesLuByMDqFWbm2Cpm6ekUG+Q3ENgqihm4PfJZ4bUjrGerbwNrPpNy973BSl1cbhr9qAayLab11Lmo+waOTAY+6OYKPgd1z20Bg9JnbAxt93ByWlDEPHREXWhx9NOF3VbvszpTWyMckcKxkDs+hMu0sdtsIc2DxosJzvHFdtt0Bn+C2p1oW95sc63d7FkZtDIwo+3VdoPuAExgG1dG9MBODohg2wLOqxv8O6nZNjBTHHbYG85JmAjqlXdtGxydsUu5YaU7+8iMIhC+UKIW6Cu1nHtjeZs1m2WGBWdybDT41B/zO9nF7kzqpXcUx/IJsMhalQkf0GAqjbp5dLVha+o9saxDk8sckB6YfPyctIdse4X0RjHYrFHEec4NFwJnaiv0cdkzz7IOKB5zBKkCCXCX6qh08OlM6Ly01GWxGMFyU7NDFR0EsLUKvU1YKqxOHeF1Nn1wZwchOHlyc/jlEiH4ZpF6gLe9bwBrAO/6vnPetdIQ03beREPYwtrZ656ZiTIomR2Gg91b8Tm8CqyUaHMMgYo+ldlAi3QHkj2wBIQ+Nle6i11u2kgr57p0Jq1xlizwg3hBQmo2d6F/dGmPNGfuCRXgEveW9cpI5Re8OJabg/UWoCP9g6Fw7vEgNvAeRcSeaUmFCaGcjgaEUy/1hPNAQC4hLmSn8xRT3FqEdU9uNLVQqfgwBuxVe6hLb0dF7jltNaquckS/1lbYByzQMma1vINrCLrzHfgwi+081Fl2Ga1LHXWD8Ea4uznD0rVFiHsf8DEpONQ6Ujkbhw7lzHjwmg7XeD33AfV0AOwhapHl0LLYm0aDl+cFF67sZ1nceAguL0mAu5TLvj0+vz7x7XEsKuwMIeQD4yHHq3F9KCwMXnLrOUwptHRhyMArAwPGaLSDCeLFgDczG3ua9ldYTmS4kl1dDyRT4tsM89ItwCMo11mPtxSBLvulO1KBxkUXdobBm6XHZnFNIMkU3A5AWKId5HRAvFDs2JmZdQCJElGZAoJE/bDUy7YwgrUJJ3ekfCDNcXd4CGeyllBfkHGwiVROAk5ed+JqKeKU9Io4kGP00CdaEwr3sbN6bkhTZ5GYTvgZ1Gtbe+0F5dSVEzo02pMhDlqVFzvlXtGno5F9OhrRK6jAg1fU9IY+MMJ73QzQ44TAeMNZGCkn7BbkKKjNTAgMM9lBAS2lrY1Cg2PQx/QfNBksecKnXJwD103wGGMGZi8EjT0+E8OI74MNeOgd4yJM4QsMsuhOx5gUJ/5jwXZEahvf0V4oiupCU7RXKkKV4blanFGhI5QkIXpYCnq6eWnAU7AjZsJhSivgcQWuiFeA+u2GsWQKFx4Sf2BVxhBwLOmLHHFEMLjhYEgbLoFVDNwmxoG91BqBADsx6LZjxnauAV3jPoeIw4i9BIppgP4uZlVrnxsXqaCMqHX4Y098MVl0MVYIdFgIIlqT5oP7pcrRiEpsqBUxU8W8NAh3enyZqg6U9QZT4EKXeSN4AZWhlo75Y/lzvwIJohEpAizqiNdbYBoq9zYWrWJPqwhyWJ0JGvBYyGPC2idRIsKFkM32HJwGSgvJIvpkePwXld15JLAPFFkXaQ++Q9JKm2dNrGlUwUfGWi3qUNdU1zq6h1VbbTLRSpeWFn/ZMj+2y7wznTMQ/ULdxVkPAcXPpER2UFYMvLWUnkV4UOX5MTGN0XAheG7Ia8PpgymJY6+Ar9leGJwIXdCK20sZU0RCjIAa4sOGMLbQMdBirTgUUq8jE6wRsYQei1ZPIdxU+JnXyvjIeQo1thbYkMPAzzYicIAbCT/cdFT+KxOzYN6DDgwYGlw/dr3heMJUi8E+3ikTESIjIdq8nelHoEEesYPfcpOLWGPKYDSZ6Qax1Qtv4D6wwoScwR6mTlqOFRxDmSjgOMzagsxn6n3Cj6xoTj/7CJdzyvdUjXhmvUwba5yt0PpXoLAIyyGeM7BubO0kXBZIVHLANXZJPwPG3/lRk8ziWPS+NCDCNxjnNkcPAjXtM4O97nNT3O1eDAxSWsmlWMYa/+rRQDBuK2/yjqCHkIKyRynPNMvTO4ah4vOpC0zslVSMRdZkbYj12JuYMJoVHkvUPy4oC7sW8Q7taR2RoKUnNiIujmRMksyOywIBVA2HytniIk8jMw48iDQmdidAy5Muwod37HGcgcmbWjNIxMuQFRUO4Oro2PYkmeM/3AxoVOzCVYwOVcFo2wnIHUZ68ECVtEn8geArUnwre7hQFVNArGAgM9OII85KNZR3QqMII0qcZropQEHQwgO34kwxha+d5UnQxkAePGVIsM/CMdHswK/RB/4Ckwn3SRSAQVKQnwS8x5GFM0gcshTpcpchf1ewdPgzMH6udu0S4XxVBsqelTvQKYQIZmaEO3kNpwPRo5qQJ8Z3FfIeLgfjjWdEE6GCQPQi1GCbrxB9nLg9iKZYy35xvzorINSYYt69ZBkogXFkfOtknijWbQReebY7tS4hieQAjWOU58HWRwbr4nlWe4hCrC8wYOtt9sAoqkAdIll2kosJqDpMLBU7es1+v2fYCCtKZsFQ5wfnxDgF5iLSJehQAenE103jI3DhOImuXECkYd/JyDKM89YwsvSFPaF3+dGYwwKuQA5PXeU0J2SxG3gT/yJHkknhqUbxKI7Al35NMAbsthV/cDtoPziRnfKATOFTlGjw61mj7aWA2020zrA11gNTEfvCWTPIC2Cps7x9AEgU1nsCk4mgvS2yD4zB6e1tEQ7f36pAiaYI0pSedWJvTIBk+0zX8UN8YEcG6w47DCBRb9vWse7SMSvpGduVD4utr18rQV0I6fCFOcxMAvMZsGrpwUqRYmVNB7wNQ+JIWoVtsd1Jx1/kfkUAsPN2deEYkfwzCf73ZelDSRcCKRMII0WdDcCBQHXDIBXHFmhMoAZbo0KXmL+uk6+k02fGdejUS6m24hCeOL7ukwGQ7mO3sGI74c2Q2iPP4175PmLaOlpmY1+/O+8xQ64M1QaQVB/joWG+OoqNrLBdJJl4xA0R3f3mtxhDZ2bhRyIE2quf6B2Yib0sVnR0tAFP6qDFAO0Bs0ufnExlHMLQQqpBvxDrDByyQ3rjGu3I7BBdbsGUPqRMiD9fcQu0eTI68ja4E55R2YhnohtxzoIUoqtwPsvAiIiekME3zsGQ4DJ2ueelc4oUkmDJcBB8KWOIaNnBv5E+cUS+pObEp0O8A/HkuKrAhGV6gqYaSSzKZToWIScxtgChIKvIsAzNVlDMb1vATJcrwOBpXnUQ6YNaPYr6WHzMasbCTpE7mGTeImpm3mRBtRKmoFysEpAgi7WtULd5hDQchi1PW5DFlEWNr7aRggLGk3nSQSz+L7EdxVwSBC1oji9qEQZouAqYVHIIH8+HhFjZAI6VBsO7soT4ISgLO8NyEz6tKHomeDCKkiKXrfoI55x4KD1LyIQanUlkgY1OEvpw34zEZSIVVqFVZnSjO6at4Z26JgVfWKCQu0KVl8Jqx/Eg5THhoV9CwGoQfyGegzdiEc7qkQ6oTrFgCPm4v3g31UVpgg7Kls4t83jojI6UgDDGsG55gtdWtjs7XgP7N1KQ9T5+dIQ4cFUMJAKBPC99FIQkVYaWXAbBJ8Nm49fUArJdcFwV9MvWgO3Wg1IEd6k1TcESBsvosaPuRtXMnqsgT6tRD3DKupJjKhegQDopucnDQpWrnIAvWIwdya52ndsMRM7IWUTNyoUKxmJGYupS/qFwpACiRML549Ga3sSlIwiLUC7ZY1jdoo8ESJUSA/myPpo8DeLS4VQn+E6duiliKB2yenxyBAQJu7fiHMRFWSB49OqouTEucEzA1mxAm4wZpifsNRdmowXskyKmTgkWBCRFJ4U66gfLDh233yybM4iNWWeOD1FrYeoAkU4mCBbM151Jzqsh9/FEkmKHNwgAzC3Z5sJZkBR66lVH+nHo6PXpAanFlOnY1ZlycggPVWeXQBu9iacBTh2vQUxJRHTCQmtje89xaAmrr6Qj0gRX2Di/kp3QAfY0WHvg6oTqkkAv7c+sgACloIRfHlSLyI0NVKaFyDARrpEYhHpEaZct5cfbg84Vdy1KYIZae89qPzaP3I4yUFAguJBJed16H3oY9ZkC9Ci17uZMNJ4TpeY3dD1L2BhsYEaR5VMxFInIVnXM2UECHDXTgw666GFBSVA+hoLVERe0KRTiMlDMN8lRghHBegMXiid0G2sKZEAiHudpBqCSPlyAg+gPWiczgVIjhDoPYmmTtEedvcpWYv+I+AmlR35OIbyDm56e1+mgZFlC+ouM0l3GsRAFSQUBe8KmydSTywBNDRYWcMMRuJ+HaA+poSUoNrtw5YVATsR1stVXA2W/EEhQ1yqW6T2CLTlmbXa+3qLM8iwdHPN+Ke97ckSBg44aE/7vK9XJ5cJlPRuRAQA3tGJLFRMSDGtw4TIeLAusGqBPMtOqhmnoK7g+1kVWMNesXs6nrT31oSWRor3lQOfws+h/3yvH/UzltHyV2Ru1IE5lKBzMJrh+oiKTkT7cbPGb1rfatfarSQmWXhjud7OPS6QgQv3/FRBMT+XHBySRqZzIRaLLvSvWYTamjgMizo/gCHt+aTKOfj04rE2cg4+NVOwaFMJaFxW4yUwzvhvHtbrOQbEsIry+2N8r3Do/RsAaAsndIwDCqlCUZGStAsKrSgEVLFnP0tYgBA86kDvd46YVYkOtgaPPlmbTJzU8NNfBAnnrrEDlGP+GYBWAsK4wpA/ga6BbyDFC6JFNA0+21jdURk4C2YhFQncZS1cQbe0lGhwhF+gNXSD7Eo75TgGDDpdKgc3x084QKqtyl0KEAIv0jP4wJkjDwWNPfYy+bclMypZn/qJeE0fRSUCtvx/FXIxvECUSWtJ9dECmk4VUlCpHwZtsjAbuBxLDdssl6YxBxxqIAlfMomGitkOk8CiRES67DwrT5THZUdIt9q3uqBERDqRNnAAjiVvg1kkXTDokfq3MYex0+J91hjr1Sc37PzX0Mq0RqtAc1yewCUn65CG4ZQAocv0uucBmRUdDDC0MNhNGFlzRfke+dbZKKRVKdUaY4x30lGzIN31ag08wFLRQQFqDchX9SDfni2qnLLja28XHl2WK1YTUiackV74zhYIz+6R3GBwSfV/R4RgG4yD+74X4Z8KwY6QOY+TwAY16SQIoQkS4YpOFhX6ZC+lOhOimPirG3rynZCAjdX2GBCDNKBieMy7VItOIQXK65l8Fmn2n9wxC3uovHp//9gI9snG4mQn/N9r22zCWFRQNAAAABmJLR0QA/wD/AP+gvaeTAAAACXBIWXMAAC4jAAAuIwF4pT92AAAAB3RJTUUH4wMOAyww5tUrNAAAIABJREFUeNrtnXtsHNd9779LLinqvaRtyrZia1XbiR030sq9tdu6F1w2vmjTFBDVNAlaYKKl/F+blmSCIkFrWJKLm9sCjSQmQQsUjUl6gAYJ2nDlm9ybInG0TJrr2LGslRxHtuNYq9hSIsYSV9SD4nPuH3NWXC73MefMY+fx/QCEJGp3dubMzNnPnHN+vx9ACCGEEEIIIYQQQgghhBBCCCGEEEIIIYQQQgghhBBCCCGEEEIIIYQQQgghhBBCCCGEEEIIiSyx4sJg7P+eGmdLEEIIIYSQcknMxIoLRuzoywY+NZpmixBCCAkqLWwCQhyVxBSAw2wJQgghFEVCSKUkHgOQAADj7AU2CiGEEIoiIZTElZJICCGEUBQJIYgVFxKUREIIIRRFQgglkRBCCEWREGJZElNsDUIIIRRFQgglkRBCCEWREFKXEUoiIYQQiiIhZAWx4sIIgD62BCGEEIoiIaRSEjNsCUIIIRRFQki5JB6mJBJCCKEoEkIqJTEDYJAtQQghhKJICKmUxBG2BCGEkKgRt/rC4W5kACQVPmMz7EWHFgCctXmcO6GWELkAYAJAbmASBdEOSZjTj5sBDJd+TyiJhBBCSCRFcbgbBwDsj2gbZUQbAECxQjgHh7uRE78/Kf7MAygOTCLPyyvwkpiiJBJCCKEoNiYLYAAsU1bt+NPiz74KuUaZOBZgjormARQokYGRxGNsCUIIIRTFBgxMIj/cjSFwdEVFLNOVvxQSWRLIk+LveU5j+04SWb+ZEEIIRdGiLI4Od6MAYJxfoI6QEj99ZQJZGoGcAJAT8lhkU1ESCSGEkGYgFfU8MIkcgF6A8uISpRHI/UJWpoa7cWK4G4MiiIa4K4kJmKPmlERCCCEECulxxPo6yqJ3pAAcBnBmuBsjw92sL+yiJB4D6zcTQgghN4mrvEmsWexFAKbo2mLAxrKj3BQH2sr0eG0LsLa1+ntnFoGZJWB+CZheAC7Nr/z/ta3m+68sAPOGJ4eTAZAZ7kYWwBDXNFISCSGEEN+JYoUsjgPeTYtuigNdbeaftQSvq80py6z+60vzKz9jegF4seiZLALmusa+4W4cBHCE6xhtM05JJIQQQlZjqzKLmIbeBbif7mVrB/Bop/nzwAbz311t1X/cpvIzNsWBD2xsyvnbD+DEcPfqyGpijVhxYQRg+xFCCCGOi6KQxSLMNYuuyOKmOJDuAnZsNP/uV7asAe5b35SPTgI4JpKiE3lJzLAlCCGEEJdEsUIWR53cua42cwSx1hSz37h3nTcjmjXYLyKkGbFLSSSEEEL8I4olWRyYRL+TsrhjY/Aa9KHNZgBNk0jBjI5O89KuK4kZSiIhhBDioSiWCWM/gCN2t9PVFpyRxHLaYqYsNpEEzKnoQV7eNSWRFYYIIYSQZoiikMUhAP1RbdSutqatVyzn8HA3hYiSSAghhPhMFIUsjtqRxcqchUGjyesVS2S4bvGmJKYpiYQQQohPRLFMFpWruJy7EezGbfJ6xRKldYuRzRMo6jeP83YnhBBCfCSKQhZzqrJ4+qqnSawdpy3WtPyKlZTWLWYiKom+ryBECCGERFIUhSwq1YeeN4A3rwW7gbesAZJrfSOLI1HKt0hJJIQQQgIgimWyKF3FpTBjlsgLMveu91UE9/7hboyHfd2iqN88TkkkhBBCAiCKQhYLUKji8sqVYDdyW8x3OSH7YE5FJ0MsiceAcB4fIYQQEkpRFLIoXfJvegE4FXBZ7GrzzRR0iRRCWCe6TBJTvL0JIYSQgIlihSxmrb7n3I3gR0H7bAoaCFmQCyWREEIICYEolmRxYBJ7IFHy79QVMxI6qDRrCnrHRuCRBPDAhpqiOhKS5NyHKYmEEEJICESxTBil6kMXZoI9Dd3VBmztaM7nJtcCj3bWTASeGe7GsaAGucSKCyNg/WZCCCEkXKJYJouW60OfuxFsWXxgg7eJuAszy39vi5mji5viVV+ahrluMVCjcpREQgghJMSiKGRRqj50kGWxLWbKoldMLwAziyt/93BtWUzCXLfYFxBJPExJJIQQQkIuikIWR6Mii1s7vK0FfWFutazWkcUEgHG/J+eOFRcyAAZ5GxNCCCEREMWoyaKXgS0XZlf/riSLddZM7h/uxogf1y0KSRzhLUwIIYRESBTLZHEXLJb8C6osrm31LrfipfnqdbNLkdh1ZDEDnyXnpiQSQggh3hD3644NTCI/3I1eWKzVe+4GsGAAH9jobaCIXe5db+57NYlzmsnZ2kJYGt2skauylJy7V5RibKYkpimJJKxomraiJ9B1PcZWIYRQFB2SxQuzZtDGw4ngyGIpsMWLEdGL8/VT8zSQxYSQxX4x4tsMSUzBrN9MmiszSawuj5jXdb3I1iGEkHDR4vcdFCNYu2Cx5N/0AvBi0ZsROqfY2lEzqMRRLs03fs2OjcB96+u+ZGS4G4ebJImWHhiI6xwW56L8J8NmIYQQimKzZLEAifrQQZRFL9LlzCyuTpNTjXvXNQy0GfQyOXesuJCkJPoDTdMSQNXUSXvZOoQQQlFspiwWwyyLXW3epMuxMqoImKOcO+qv90zDDHJxNTm3qN88HmBJDNt0bKbG71NiSpoQQghFsemymJWRxemFYByfF6OKF+etv3ZrR8P1nim4mJxbSOIxBLl+86FMPmR9RvnIYa7i//pACCGEothsWRyYxB5YrA8dJFncFHe/DvSVBfl9qpOYG1hOzu1G4uvxQEtiyBAjhuXnYwxAoYZEEkIIoSg2VRj7rcrivGHKYrWk037jvnXubl9FmEuy2GBq/PBwt3Npa0T95jRvUV9ROWKYw8pRRU4/E0IIRTG4svjyNHD6qr+PaW2r+6OKl+bl39MWAx5JNNy3zHA3TtgNchGSmOHt6TvKRwzzuq4XABxtIJOEEEICTDzoBzAwif7hbkzAYhLmwowpSg9s8LbWsgz3rauZy9ARphfUj33HRnOEsY5wpwCcUU3OTUn0J1WmnXMVf968JQEccenzk2WSWnR4m9B1PefCfqewHIhV1HU978A2E6Vz4fQ+l+1vQTwIEEIiTmiy/g93IwPJih1bO0wpW9vqv+M5dcU9WUyutR84c2keePly3ajyIoAhmeTcYSvNZzzzbeCvPhSKe0zTtEFgRf7M3pKkaJo2jpUjibusCpGmaYfLBVTX9d6y/0vDHMXsw+qo9wLMNZJHrEqjEMM+ALtRe1lDHsCwruujiu2UFLKcRu31tXmYI7GjlTJWrzKLpmkZse3K7WbFPucU9jchHsz21thf5W0TQsJBS1gORAhJv8x7zt0AcpdMKbO7fnF6wZSnczeAN68v/1yYrV1nuR5urlV0IrCnq81SkIvl5Nys3+x7yqedixXicLTOaxtxWUhVulzehECWEnlXW8qQBLAfwBlN0xpOd2uadgDACSG76TovTQEY0TTtmJAoy8KladoIgDMABlE/CCsl9j1hcdspTdPOiPuj2nb7ABwTny8jiX1ifw/X2d+b25ZpD0JIeIiH6WAGJjE63I0CJPPunbth/rTFgK52U4I2xYF4bLUIldb3XZoHri+af5YnsTYe7DHF51dngckVgwU3t7+lHeheU7/MYGmtohujijNLzmynFOTySn3RHhzuRhJAv0hvREkMGFWmnUcrXpKtOH99AIZsfN6xCpkrYDm6Ol3lgWRc07T+BqOA2yr6hCJW5mRNYmVZwrQQ1V1WRE70Ockq/12+74mydixYGXUV27aabD6jaRp0Xe+3sN1q91y+TPp3YuUocUYcXy/vCEKiRSgLzosk0J5W8jCSO7H0lyMwkjuXG/fVCbR8YxixF49Wfc/WDuA9HbXXC16aB15wKV3zh25zdntvXgd+eq3uS/JCFvNRkcSwTD1XmXZeNbWsOv0sRvr2V0hoRvw9B+Bg5bSn2J/9VcSvt9ZnitGzEbH9sWqvK3tN+XbrCqiQ6BNV9mUYVabFyyvbVNtu5dSzuG9SYptDAHK6rhfKtnO4Sj/XW2+qWBzneOW9WeWclpLdl8v5QV3XD/CrkxCKImVRhu4kFv7xOLC++kfFJgto+dpTiB0bq/r/XW1mkEi1tZIvFNWilBuR7nJ+beaFWXN0scG6xT0Dk2YARNhHEkMkiiewciRse5XXVJ7LI7quD1nYdqUo3hTGeiNjNUbacuVrHKu8J9FoPaPY7olyidJ1fZfFtilJ1x7VQJAqoljaZm+1fRcydwIrRzOzuq7vqdUGMKebE422XeMYiwC2OxFMRAgJBi1hPTAxcmW55J8y6xNY/MzXa0oiABjdSSx+8mks/vPPYPSuXr51ad5cK/nm9dXvTa51Z7edmn4uZ8sa4NHOhusWjw1340CsuDAITjcHQRKTFSJUqypS5e/tpMnJN5o+FaNflTKUFgEwtd7TUG7EdsuPpWZuSCHHqYoHoV6Ho4WL9URO/L6yrfrqrCccxOoR00btMlRxD2d4ZxBCUaQsWmTxk0+vmG6uxwphFGsZy/npNeAHUyuDTbasCVabr2011y02yLe4/94XJw7z9gsElcI3VkdYygUrKUbnVLC0vlFMr45W/NqJ6jAnK5/Xal3HlfvtwkjbwUbbFO1QKae12r68fbJWlgeI7Ze/bjdvC0IoimGSxaJbsrj08f0wHpbvM43uJBaf+i4Wn/ou0L3yO2h6wZTFF4rLkdNu4MZ0dom2mDmVvmNj7YCdx//8I1g7zdmrAFAuFo0CMOxEP5d/Rk7i9ZWfmXbgmHONtikkOFmx36MutH/W4uvyjUSxyj4fldiPvMNtTAgJCPEoHOTAJIrD3eiFuabJkdrBxsO7sfSxJ+1t48EeLPzzz9DytafQ8o1h4Fpxhci5KXNesLUD2Bg31y1WpuRZO13EJ7UP4kv6c5jZxKwbfkRi2rn8/+1GP8tIInRdz2qaVv6rpMLxpQBsLjtWKxdkWlHoIHl8BYsvPYmVo7/VjqHPRlufrZROJ5KHE0Ioir6SRQC7RD3ijK2NiSlkp1j62JMw0p9Ay5f2IfbqRKjavZRC5/TV1al+tp4+iU9qH8SX/+nruLR1W/guusKFwN82Ff9OiOCTukddJmtJBaE4q7Cf+XKh1TQtXWtU0kKCaatUXrBBuHEr9/lMhWTLwKc7QiiKoRXG/uFuQFkWLQSvqFCajm75xjBaRj7lejvML3nX5qWp6FvaTGEsj4reevok/nr3b+Df/v7LeOWxEC19OvlWGI6icgRK5Z7ZC7cDygCrlVmqpdVRJaWyD00mya88QghF0WVZXOo/ZDl4RYWlPxqA8etptP7DH69K2O0kTlRnkaXWVPTa6SIe//OPYGLvX2H8bw8F/wK7MQdj4lSgD6HKejY7sjnkg+OpNpNQSjCdQ1ltYxE5fSwCXWHOxnsLIIRQFCMgiycBWI6+XfqjASz17nV934zkTiz843G0fmlfzWTdQaU0Ff3y5dVrMHvGvoB7X5wI/FS0cfR5oHg16Keq8kIfhfVp4b1YOf3cp+t61sN9L1RI4mCFJBZhRiiPRrnzr5dzkhBCIi+KQhaPDHejCAv5/IyHd2Op38PRLjHF3TLyKTPQJUS0xYBHEmaN7WrrFv9692/gS/pzOPfAzsAdm3H0eeD1t8uFJKhUTjsftBpYoWnaZpj5+krshkvBHoJ0hQBV7mdlGpteBwIxJio+Nw17I3RekMfKetoMSCGENKQl6g0wMIlRrE5Yu/LLP7nT0eAVGZb6D2GpSZ/tNjs2Vi9fuHa6iL/e/Rt4+OvPBOdgbsyZlVhO/qzyizlwVJl2zksmkR5rIJ312KawrzXbXEwjl69JzDokR5XtEYQFtpUjwikQQghF0bIs7kG1EaD1CTPf4frmBfkt9e4NrSw+tLl2KcE/++w+7Pmfn/L/QZQkMfhRziX2NhC/uggRKxephKgvbIW0zX3NNdjeSQvbtHKzV35Oql5VGJ+QbdB2hBBCUawji1mYibmLfpLEsMtiWwx4aFPt/+8Z+wL+7LOP+/cAitdMSfzlVJhOS18DwVCREqsjbklRGq8hIg9ixo7U1uoOLMhwoYos+rrakNjnFYmzAyC3hBCKoq9kMX9TFoUkuhnhTFk02RSvX9P64a+P+VMWfzkF41++GSpJdGDauZawyUw/H25U/k/kQxzHytG/XJVp5YKMsApJtSpPByv+nRLR1X6mcsHzuI1Si4QQimI0ZdF4sGeP3yTRaVmsNd3bLO5dX7vcX0kWP/AdH0WAn3zLHEm8MVfvVYUA3gK2pp1L2Jx+TgA4VmtkUYhNZZWlIqqvNc5WkbnBGtsdhIXAtrJjzAE4UvHrjKZpx+qN1GmaZnnU1GlEpHe2SlsPCvmuJ9F9EueQEBIS4myC1Sw+9V1fL0xf6t0LFE7aioZe5zNRbIuZeRYLM7Vf8wdffMofSblfeA3Gf75k5ZVnA3j5OzHtXP5e2ejnrNiHBIARTdP2w5ziPVu2jWojYP3VRj51XS9qmnakYj8Oa5q2F8u1jjeLz0xW7IMV8RoS4louhmmY07oFsa3L4vfbsFwysAAz5VAz6BfHWl6y8DCA/Zqm5bByHWeptGHp+EbhbgQ7IYSi6G8+//3FvoovFX/KYv8hxCYLocqz2EgUt54+2dwdvDEH4z+PV0Y2hwYHp51LjFXcS31okGFASMpRIS4JsT+ZOq8vAthTq2Sf4KAQnXLBTNUQzmwVkdrZQBZ7NU07XKXfSNbpS5KapiVttq8SQp57YY6eVtaH7msgyWl+SxASLTj1vFISU5CYemo2i598GuhOhqb9N8XrT4k3Na9iKWhFThILATsFjkw7lwmJ0vSzmB7dhfojV0WY077bG0gidF0vwlx7fLDBuerXdX2PeH2xQqAa7fOQ2OdRNM6fWbT4OldlUdf1PaJdrI4QZhu0ISEkhMTYBDclMQHgBAJWDzVWOInWTz8k/b4HNtQPIGkW1ZJwl/jWXz6Jb/3lk97v1Otvm4m0669HrEYvDmVyvLtqo2naAaxMiH1Q1/UDZf+fwMqpzyLMkc6c4uclsHJ0sYjqQTB2jyst+pLy/iQHoOjHJNdl7ZyqEGPf7jMhxBs49bzMeNAkETCTgS99fD9avir3oL/Jp2e+3trJF/+4CWnfJk7Zqdtc5G1lDzG6l4NDVU/E9rJweZ2dqsiGpZ0JIeGBU88APv/9xcMI8NqbpY89GZop6I2ttSXR0/rPIom2DUkEDmU4CkMIIYSiGHBJzCAAwSuNkC0xGPfpooO2Glekp1POZy/A+ELWbqUVjiYSQgihKAZcEgMVvFIP48EeGA9bTx2zKUCLDrwcTTT+8yUYY99WWY9YCUcTCSGEUBQDLIkJmEl7Q8NS/6FQnitPRhNLVVZeeM2pLRbYvRBCCKEoBlsSE2E6LqM7CaO3ccCHn0cTpxeW/94WA2K9Pe6PJk6ccqNe81kQQgghFMVAchjVk+0GnqWPNR59i/s4KdKCsfz3rR3Am4/0uPdhN+Zg/Ms3zYAV+1PNleTYvRBCCKEoBozPf39xEPUrPQQaozvZcK2i3+o8V2NrB4BdO/HFfS5NO7/+Noz/+AFw1QA2JJZ/1m4A2juAtna7n1Bg90IIISToRCrhtijPNx76k/rqBFqf/L2a/3/feuDedf7c95lF4AdTwGO3Ap/926cx/oefcPYDfjkF44XXgNd/AWzYDMTrCKGxBFy7AlyVDmAu4lCmk90LIYSQoBOZhNthinBuhPFgj5lXcbJQ9f/X+ngceW0r8GgnMP6He52XxNffhvHtH5uXfeI2C8bdYspkaytw+aLMJzHimRBCSCiIxNSzCF4ZQciCV+qxVCeoxe9Tz/ObE/jcwOed26DIi2h84wTQLqaWpex1g/ljnQl2LYQQQiiKwWEcIQ1eqYWRrj0at9Hn48jPfPyvML3BAae/MQfj338A42vPAx23ABttzAav3yjz6hy7FkIIIWEg9GsURXm+wSie3NZPP4RY4eSq33/oNv/u87k7kvi9f3/T/oYmTsF49W2gdYM5hewEv7SY8eZQJgZCiBKapiXEg31S/FSjCLHEI2h1tQkJGqFeoxiW8nyqGI/0rRLFrjZ/7/Nn//bL9jZw8i0Yp84AF2+Y08UxzwfN+aVFiLwc9gHYDSBdRw5rvRcwswyM6bp+gK1JCEXRqiRGJnilpig+uDoHoZ/XJ37p8Sfx4i6FvIk35sx1iEefB9rXA2vWAes2ObtziwtWXxmJ9YmapqVg5iOVpaDren9UjlnX9V5+zdRt0wyA/bJyWIUkgJ46nyNbhWtI13UGpRESVlEMY3k+p0RxnU9F8cVdPfI5E2/MAa+/A+P4z4CpGSBxh3s7OHfD6iuzEbm89sIc/VGRg+GAfgknVI+ZVJXuEXi3djytcK4JIQhhMEtYy/M5JYt+nHo+d0cSf/H3/yH3pjfOwfjqD2AcOw3Mt9sLVLHC7IyVVxVxKBOVUYiMjfcO8M6MtCRmAJxAxAIMCaEo+ofQludTEsXtK5vCbzkUpzck8Bf/6z+sRTlfvAbj+bdgfPUFGM+9AczGzSlmt9chLi4AN65beWUkRhPFF72dB7E+EbBAoimJI2wJQoJDqKaeP//9xQMIcXk+JW7bdvOvbTF/rVGc3pDAJ770HE7ft7P+C9+4AOOVc8DFa8u/a/Xw0r162eorj0bkqtpt8/0JAH0ARnmDRkoS05REQiiKzZTEPpiLokkZ5SOKfsuf+LmBQ/Ul8Y0LMI7/HLhyo3k7uTAHzFy18soiDmVCP6KoaVpSSJ5d9lMUIyWJCUSgfCohYSQUU8+McK7D+uUZvlva/bNbNes4zy0Ax38O4ys/gpF7o7mSCADTU1ZfGRXpyTi0naQYYSLR4DC4bpyQQBL4EcUolueTwUguj9ht9MG08/SGBD43cGilJM4tAIWLMAoXgcJF/zTe9WmZaOexiFxSex3eVo53abgRo9AZtgQhwSQMI4qRK8+nyqYmPxaU1iTelMQrN8zglH8To4d+ksSFOZnRxFwUop3FCGDSwU1mGNQSCRjlTkiACfSI4ue/vzgC5jWzRLMDWW4Grmx70Bw9fOOCv8SwUhIvXZB5x8GIXEZ7XdhmBsAR3qGhJmPz/aVyfXkApciybWUPLUmHH2AIIWEQRVGeL8NTaI2uJq1PnG7fgC/u3IvvPPgYzp1aBI497++GKkni0pLVd2RxKJML+/UjRv7cuN8GKIqhvm76oL4sKAvgoNXk7GKKmxBCUWTwipIoNiHR9ou3p/CZRz+DcxtuBwysTG8TDknMA+iPyCXU59J2k5qmpXVdz/EuDSU9iu/r13V9VOYNuq4X2NyEUBSbUp5v8oKlZMtYv6EN69e3+bLdvBTF6fYN+Nxv/gW+fu8fBOfCmrkKXJmSlcReHMoUI9JXDLi8bYpiOFFZP35QVhIJIRTFSkm0vQD+2rV5XLs6j6mpWczPL2Lq0izm5helxNAKnZ0daGs3Y4ba21rR2bUGAJDo7EB7W4v5Z7trMUV5mOt7sCmOFFyODJ9u34Cx9/8Jxh74CKbbNwTjojKWgMsXrVZeAYACgDEcyhyISich6vLKfOEfhFxO0z5N05IBGBEqUmilScu2sa7rB9hshFAUVVEqzzc1NYvi1A1MTc1iauqGoyLY+LNXpld5550rVV/XvWXdTZFMdHZg/fo2dHauUf3YLIChT//31ptfvB+6DaU0Qo5PIQZSEAH5UcRH7kfskQfGjOTmqH2RyQaxHAGwU/JaywDwdbuKtXK9/NqQesCQZZQtRwhFUQmZ8nzXrs1j8sJ1vPP2VUxOXsfc3KLvj68kr5Ui2dnZgUTnGmzY0Ibu7nVWRiBHP/3fW1etm3vvqygC2PPGgxh3ShbPbbjdDFS5+3eDJ4hXL5s1nK2Q2IDY7t8Gtm0BojmilJF4bVbX9aKmaWOS19lev4sikUZlBuMom40QiqKKJDYszzc1NYszb13G5IXrq0bxgszU1I1Vx9Pe3opE5xps2bIO69eb6yK7t6wDzKmxoQabHLIjiuc23I7v3P27+Po9v4/TXfcGqzFlBbGjHbFH7gd6dpR+c8RIxCMligpRq0cBQNf1rKZpRYn3JjVN69N1PQsSFpIK78mz2QihKMpKYs0I57m5JZx56zLOvHU5VHLYiLm5RUxeuL5qCn3duvjo9w69r25wxXtfReGNB5G1KovT7RvwWte9+PZdj+LF21PBk8PFBeD6FVMSrQeqADvvQez3fwPouJlXaNRIxIci2EfITDsXK4IQRgEMSn4WRTHCoqjrepHNRghFUUYSS4XkV4xKTE3N4vXXLuHMW5cjdbIWO2Zw/fZfmH9fM4Prt58HAKwpdqL9cheuLCejbcTJclEsySAAvLPhdpzbcDtOd95j/hk0MSzJ4ex1YOYaMD8n996d9yDWswNIrC//bc5IxPuj1jmIvHQyo8+VkjcmKYpBCWoh7pBjExBCUZRlvPypdPLCdbzyyrueBqM0i7nEFK5s+xmuJN/CrPi7Bbbhs41f9N69x3aGr8FuALMz5p+ycliaYt55T6UgAmaU856I9g+ySxRW1LvWdT2vaVoecgFoA2i8fIIQQkjURbG8PF9UBPH67edxcedLKL7vVcwmplQ20YfzHx7Cnd+sP33THu/DnZuB9jhw9QZwPmAjs8aSKYNzs6YYzikuO0huQWznPcDOX6v1iiKAPUYiHtXpMJnciYUaSbOHIZccP0NRJIQQimIjScwAyFy7No8fPv+LUAviYscMLjzyX7i48yVVOSwnAXOq70CtF8SKC5nqX/MXgYvXYPyiCLx7DZhb8EkDLZg/c7Nm5ZTFBfkRw3Ju7zTl8H13VRs9rKTfSMQjubhe07Q05NaYZev8XkYUE5qmZZhwmRBCKIq1JDE1N7c08uNX3sXrr10KbcPPJaZwvufbeHfnS05vej/Of7iIO795pIokDsLMRbma5C1A8hbEcLf57ys3zJJ7JXm8Mmv+zk0hXJgD5uedEcISHe3Ati2I3X+Xmd6msRyWOGgk4lEYRuPSAAAfS0lEQVQOrJDNnThc7ZciVc4o5FLs7AXz6RFCCEWxiiT2ARj/7nd+HtooZhcFsZzDOP/h3cifGIv9zs9LEc77ITNCtLHD/CmXRwD4xWVTGK/MmgI5uyBXw3nuhimCS0bZaKGD5/r2TmBLF2K3d5pieHunylZGjUT8QFQ7BU3TEpBbn5hvEIByVFIU0wxqIYQQiuIKdux+IjX+5eHD6zZswsWrd6Gl4z2haujSFPP5nm979ZFp/PIXabw7MYJbe5zb6h2bzR9gpUDOCWEsE0fj4tXlKewrs8Dbb8uUyqstgiJlTcxMgA0ktwBr2lWlcJX0gGvkZHMnjtX7T5FTsQC5qWwGtTTnIaFU6rO85GdO/FmgvPvmPCXL7qdkxb1VxHI+yqKoKERIsEVxx+4nkgCOTU9dSlyZnkW88/5QNXLxfa/izO6vYbFjJrxXUnv8pkAieYsQyUp+s/42fjkFzJZNN2/pLM9j6MmpAtAb4eCVckmTYdSiTMrUf85omnaQefVcF47S6PFu1B5F3l/2egDYRfnwXArTAHqEEKYl3196AC4AmACQ4/kjgRLFHbufuJkrsaXjPYhvfgRoaQ9+y27swPXNZ3H+0W+h+L5Xvf/8K9PBazNnRgTtEHlJFF9KMulsshZlblRSFEsCM+qjtkmh1hrfGui63uvA52Ygt2Y0r+v6kAVBHBQPBbKl9gbEddKIpOR2U5qmHZN8z1gYA5/E+Smd95QDm0yJnz6x/QLMQLNhN0eJRWWnAYW3enZexbUsE3A37FUFKXEdjCu81dF99MOI4n4AqVhbZ/AlMd6K2N2dwB2b8e7d38OZ+4abty8zIR69dIfIRjhXSoDk6y3V5tV1vaBpWk5yNGQA/gpqSUjuv1Mknfxc8eU9ArVazI7vj832nQjhg9p+yK3pVT2HgwAGxX3plvzkFa+Voof3fp/kPpYk2wvSiu3naIGIlmbeFDt2P5EGMIiWdrR1/V4wJTHeCtyxGbEd70Gs5z5g+60484F/aq4kAsCli1Qe6xwxEvFRNsPNTlOmM5fpMMdkR0HEKB5xaHRC07RxVKl2RZoviJqmjQA444EkVpORcU3Tjom0WI4hRitVHsC9vO9lF/H3+XjfABfWErc0+f7YDyCYI4m3bUTs/Xcg9ug9iL3/DuC2DQCAM/cN493u55q/f9NX2PtaIxfRGs7Vvqz6IJk7UXINYVbIpQwDPDPOiAiAYx5/yRFr5+ZAkwSxmjAe0zRtXEx5OtbHKrwnaXF5g+2HJ4V7IuG0UDc4J7I4PtrZNFEUo4nplvbu4EQ4d7Qh9mu3mnK4Y6sZvBE3m3Axfg2vpgb8IYnA8ohi8SR74trkEd3yfNWQzZ14VObFQiplO7E+h7+0oigiKQAn4O0oDbEg75qmnYDc2l0v6ANwxkEZGlN8nxcypvoZuz06Fyr37FGnd6KZI4p7AaB14wf8f0ffttGcWn70HmD7rUBH24r/Xoxfw2u//je4vv6MP/Z38sLy3+cDVp7PO4ow1yUyqlbtybqguKZJdk2GyhM/KZMRmCOJlG1/nZe0z+U9AXN0MWN3QyLCWqWf7fHgOFWFr8+ja0T6e61GKdXgiaKIdO6LtXUi1t7tz9sk3grc1bU8eiimlqtx5r5h/0gisGJ9onG9wF65OnsYvLIC2S8EpekN8aUhe1Hu5+lRln+uR/TfeckESN5HxNpJu6j0F2kPjk/1M7yYGk971M7+FEVh44mWtdv9d1uUTy+/t3vV6GE1SZzq+qG/juFSWenD62fZM69myEjEc2yGFciuBRyz8Vmyo4pJD9cEhYlxcLrZj5I4ErDdzjggiyrToa7KmFiSYWf7bo8qqoyoupIFoFnpcXoAoNVPoigE8WbSaAucv/sr/lmTWGJhHpguy6HINYqVjBqJ+BE2g60OM28zYW8WkvkIYS5VodxbP6cH0JxUPqT2OUk7LIl58VNtNGAbnE1jlNE07aSu66p9p+q9m4Z7aXLsil4PADe/S1TOnSsjis0Sxb5YW6c/Ip0VBBEA3u1+Dufu+or/eqPKaOf5ojmquG4be2ogbyTi/WyGVXg5mljKqZiV7KgzmqYNsVKLJVKURF8+jI07sKkszNE5SxkHxPKDtHjQsitGhzVNU1qbrOt6UeGeL8mYW6JoNyClT9O0hBt9kuIMSs6t/tFzUdyx+4kU/DDtrCiIAHB9/Rn8fPu/+rNHqpY/8VcTwLZPRL2vLgDoBan2RSLbeTvx1Dqm8LkZl5/gw4Lq2rfyGsH1RjYOWqk4I0Y1ZdaX5pyoZONT7CQ4L91zQ7L58coyDWQdSuY9ommaqpBMKNzzriydEP2eE9tOw51RPBVRPOrWxduMEcU0ALQ0K4ilVD1l+61Kb1+MX8OZ+45gMX7Nn91RldJ9xuWTVeouR4oizOAVjkZVeSqW/ALLOpHMVdf1rKZpRcnPHqAoOn5flEaoGn75i1GOFOSDkaL+MHbYhpQUAfQ7UTVF3Lf9mqaNQT3IqRQgpSL0KktOUi6N2jm1vnC3S6LYo9i+rtCMYJadaGlHrM37ur6lIBVVSQSAc3d9xV8RzpXML6z+3fmjiDhDjHCuiau5ExswKvl6BrU4J4gHAWzXdb1f13VL05i6rud0XT/iZm3gEEpiCmapPBXyAHY5XVpPpE/ZDrWKKQCQFsn5VURV5TPduOedyoPoVkCL7INFwc37shmimG6Je5wV4LaNy4IYVz/kK5t/jAt3PuvvnqnKiCKun41y9PNBluer+SWWVOiEnfzSUlnryEot9uV8u67rB7je0xMOK74vD6DXrS9/ce57bcjiYcVE+DmF97iRT9Ep+Uw4XWZUbE+2bV2tPe2pKIr8icnYmi3efGBHG2IP3W3mQWyQ5qYRpSln3zM/X/330RxVHDUS8QP8rnJMukadlAsROS37RdXnRWmvEFKawuynIHr2IJZWFJKikERXz1OZLKrIaBJqI6UqD4dpF86Lk6NVTo8qqhyvq1/wXo8opgAg1rre3U+Jty5PM3euc2STF+58FrNrJv3dM83M1Pwv4+wzUeun8wBYw9nZDs6NzmhY4T0Znjol8RhlU3iKaqL4PV7JvPgc1TKmAwqfp1KlJeVwGU+ny+85vT3ZEVRXqrE0UxTTroti5zrEHknaWodYyeyaSX+mwpEQRVw+af5E54uRwSv1n6r7IJc7sej0WimByjb38gxKSyLX6Hp7f6WhNjJ0xO0v/RrydlDhrQnFEn/NrtLi9AhgyuFZjrQH7elrUdwJwJ2yffFWsx7zQ3fbnmau5Mx9wwgEC/N1/9t48wtR6ad7jUS8wK8rR5+CR10c0ZDddlJlMT0lkXjIXsXzdbAZO6vr+gGoTUGrrBlWmZlwZB2gELqkC02Ydmj/VNYnTrh9fTRl6tlxSsEqdeoxq3Jl849xZfMrweiapqfr///5Z80E3OGmnxHODTujBOSnb8dc3CWVbXNUsTFDlMTA3F+l89XMDlpFUlOywRyKMxNOBbS49YDp1PSzinCGbkQx6Wj+xNIo4o6ttqKZ6xGIKWerzBeBN78Y5j76CCOcLSH7JVZwUzjEVFtBtsNnUEv9e4FrEpuGiowUm32+xOcXFN6q8tAmKzdphw5TRjhHXT7nTghxzouHC89EccfuJ9KObtDFUcQSgRpNBOqvURQYb34hrKOKOSMRZ/CKOx27F2svmCrHOQq6rvNeaB4qo0t+kXqV+1BFkqSnn+3mUFWoQnUQEoE3Di2HSbndjr4WRYh5d9uJtuOtiL3/DldHEUsEbjTRgiiGdFQxD/XIvUghpolkO6OsB7um8kWZ4RmtLopsgqaiIgxjPtl3lfswqTC6n1P4nLTNY5N5fymBtUzfZ2t6XHH9pBd9s6eiaH45tbSrb2FjhxnRrFCfWZbAjSZKYJx+KkwJuIsw1yUywtkasqNwOS8qcYjPkP3yUI26JMStBzEVmSn4ZS2pV9VTFD/H7jpFmZHekoDJBIrYHVFMK1w3njwUeimKOwEAMcWI5Lu6EHs46XhEcy18X4GlGjPXrcvi8cfD0jfvYfCKFLKdmZcjHQxqIUFHRRSzPjsGlenMHg8+J+3huZlQODdJm1Vaevx63Xg+9dwiO/VcClh5b7dnOzq7ZhJTXT8MoCjOWH/trybMKOhgM2Qk4jl+N1lDjL75qjRUxSjDKOST8aYZ1EJ8xE6F90z47BhU+lQVQZLuW1TXKQqBs9pP3MwZKwJFZNrDjszKvtezcmveTz3LUJpqdjFgpRqBHE1UwDj+eJCnoEeNRPwIiAyyo2/ZJqTrUBFTBrUQv6AiTL562FVM+J1S+Jw85NfTqo7Y9dk4HzJCpjTDobA+sehlYnbvg1niFgc07tjs6VRzOe92PxeNLm2+COP5jwRxz/NGIt7P7yTpjkj2ibUZC+yVSvo5XOKLEFWSkq8v+LT2tvRyHsVpV1nZUV2nKLM+8aiNfVQtNyjbN3u6XMETUdyx+4nlm6dRMEspqvn9dzTl7pjq+iEW49eC1z3JTDuXc/lk0NYrlgrZE0mZkm1nl0r2uTHKIJv2ghA3HsZURKng08NR2S8VQXJ9naIQN5lzk7PZJ6n0RbJLFjxdruDViGLSsiQ+dLcnUc01fWvDmWD2UqqiCABnnzF/ggFrOKshPe3cxH1VGVXk9DNpNiqiNOHTYzmp8B6V6WfZfiahIOQy4pavEUkss58qeTRlBdjT/jnuqZXWm3be2GFKYrylqXdH68L6SPZwxvHHEQOAbZ/w824eZPCKPCIRbFL2i8JuglsbFBTek9I0LcWSdaSJJCN+/KrLP7KSMpeG3NS4nWnncqEfdEP6VEY8vV6u4JUomg1Xa0Txjs1Nm2qu5NbJD+LcXV8J5vSzE7KY2Als3um/nTv7DIzjj2dBVFB5wj0cwOMcAMC1qyRIoljw6bHkAOz36LOOSopiDwCZQEYZcav6HaPrelbTNMvCrGlaWiLYJK3QXp7i6fBdtaossfdu8Y0kAuaI4v0//lx0Rxa/9xhw+aS/dsqURAA4hqdjKRDZp9VMRA63j0EtJGAUQnQsqiMMOcnXWxYrMStitU8oNpiRcGv62bf5E5siisbsheV/iKAV3NXpu6t93bXt2Hn8X7Hu2vbodVvzRVMW3/XJ0pnzz5YH2ySELKZBLMtThI6VQS2ENPf+k0ahSovMOkWVaiy1cKtKi8z3mWfVWJohipsBYGluEgsXn8Pi7JtND1ppRGlk8dbJD0ZXFpsd4FI9Irskixn2y5aIWpDHfp5yQgKHbCouq6IoI2yNRFC2Skuy0YsU1ic2ZfmVV6J4syGM9S2IP/YYsHGN76/c1oX12P7TAWx9+08jeecaxx9vnixePmnK6nzNNbsjlMWGnVAK6glqg0qyiUE4hBA1cpKvbzhdq5DEuq6EKYx8WpFU2f75aDNOjrchxu0daPudPUB7R6Cu4Dt//qfY/tOBSK5bNI4/DuPUp7390PkijJceryeJ5bI4CFKLvTxuQojfUchVaOVhUKoai8VIYhmh3e3QcZTwtBpL00Qxfv9vI9Z5eyAv5FsnP4j7f/w5rJntjt5d/OYXYPzwI1bEzRk5/eGfyATUHMbTsRF2tVXJRPW4GdRCSOBwempXJkjkqMOvA8w69AkH97FpWT+8E8X2DrTe/1uBvorXXduOB/PD6Lz0W9G7hc8/60lEtHHq08CvpANpMpTFlWialoF6XjNKMiFEloLN98t2/OkG/2+nvnNVxIhe0cF9TLvYPsETxda77g/clHPV41hYj3tP/405FX2lBbgyHZ1uoLRu0K11i2efAd78groYPB0bwdMxjiSZ7I748bNSCwkCYVpDfNbOm0WVFhkJ66nzoCwjiQXJRP2OpMlRWEsd/hHFWOcdobq7b538IB7MD2Pj8Y5oyeJ80Vy36PRU9OWTTqyFzMCMiI60LIopmainiUlKflkQYheVqkB+7avSTfrcnEP76GRanEqcSpMj08aeV2Mpx7MSfkFdm1iPNS3bcH/Lt/DzE5/BhV0vABs3NW9n2uLeft75Z2H86j7Ednzeftk/68ErVp/Qj+HpWC/2GVGtCZ1ReM+QrutH/HgwYp3PlMJb96K5NatJtFDpbzZH/PgrkanSktQ0LVFDoGQkTHZKNwvA6lKnRJ3Som6soXSFFt7b9rm79R9w68vvA158wfx55RTw5k+BswXg0iVvdqIZkloaXfy+vQTdxvHHnV77WJLFqFZxUYn6HfXrwYgvApX967OSy4yQJoqSX/uoHoX3OFFnXfbBLl3lwTIFibQ4Yspbtj+SOda9VvfdwXYJpii2bAl3f31ny2eKuHSxiEsXgXPvmKJ4+ifAiz8EvvV/gBPHzd8vzIfv4H81AeN7j5nCd11ymcrpvwPOP+vGXkVSFsW6F9mbLdvMaQ2Xn6gz9Bfi0QONiij5tX9SmRIvOPRQKNOOPU0SMKno5xoya7ldm1GNpSmiGPYnyTUtv9YLYFfNi/zCBXOkcSJnSmQYhfHsMzC+da8pjFZGGM8/C+P0U253dlGTRZXRxKN+Pyjx1F/wqD0IUUVWFhN+G/VWqBZSukedkhmZKi1pm/e8at8nI5ipKufYC5mlKPpJEgH0/uijrXnsMwoAelFvmmx+3hTFiZw5Ne0kXbf4Rxi/9xiM5/6bGclcbe3huxPVyvO5KYuhD2wQHXxG9vrVdX00IIeo0mEyqIV4iUqn7rcHWZX9yTn4+TLbSpXnKlSQXKX9diBBuMzU/kSzLwiKolOSWGKfUcQ+ox/AUN13zs+LqekXgJmZcLaOqNVs/O/bzCjp038HnP4783f1y/O5IYvjESj5pyJEQQr2GFZ8H1PlEK9Q+VL3Wyorlf3JO/XhNiVMpg/M2xwFzdlo07TEg3x0RhSNqV+GXxLL2WccAbAHjRY4X7oI/L//ciboZdNG/7aWmGY2Tj/VvPrR4a8PrSJEY0E5ONGpq4wApBnUQjxCRZjSPjsGlQdOpysxyMhRT42/Oyl61Tiq0qZifWLCo30MlCimjbkb0ZHEZVnMwpyKrv+6+Xkz6OXcO/b2Kt7GbtqaLB4O20EJEZKdMio0q3aoDVTFlqOKxIuHmRzko5+TksENbvYjUhHDimJnBZmR2ZSi5Npdm52TbNs+hQcDX6wf59SzGo0lcVkW80IWG99Ir5yyJ4ubNvHMWGMwhCX/VEQoiDkGZas3lMjwsicekfPo/nUDleCvvNNZEySrtKSFiKVhfaSuaPchWRyzSpWWQNR3pijao9+yJC7LYhH7jD0AGic0tiOLa9fy7MiIQ7hkUUWEhoN2kAqdc4mEqH9NiNuojAL1lQdlNAPFYDjAveUrWYl9T8Pdaiy1kBn5TFf86bmAUxS9k8RR5XfvM4YA9Dd8UnrllFpZwI0cUVSQxcCX/BNTGrLHkG92bi4bqAouU+UQL1AZ9U4AGGzyfg9CLX+iW6NeshKWdmnbTh17UrKv9s36cYqidUZtSeKyLI7CnIqu35G8+IJarkVOP8uSRvDrQ6sI0FhQD1YhKvLmuWZQC/Hg+lQd9R5o1qii+FyV6e+ciw+cMm24F3JrtLMOneuCZF+0X6ZtKYrBk8R+x7ZmrlvcjnpBLvPzwMsvy2+bo4oqpIIqi0J8VKIURwN+zlRHFffzcic+vT4TsF5D2Gn2Q2000bXlK0K4rcqSzAOg01O6Usm3Lb6uoFjph6LYJPKOSuKyLBaxz9hV9wv70kUzObcMXV08Y+qyeCaAVVyUcicGoGSfWyMCTV8LRsKP+JLPKV6fniaIF5+nMu1d8CDHnxtRv2MB2EdfBRpSFBtIIsxpYvcwk3PXFtE3fyq3XpFTz3YIYsk/lemio0E/UWLKJ6t4jlmphXjBQcX3jXiVLkd8zojHx9dsYco5uTHFlEiNmPDThUxRbCCJP/poq/sjL43WLZ4+bX1bGzcBbcynGAVZFJF+Scm3Balkn1sjA8ypSLx4mMnZeJg55rYsimUr41Cbcs570Y8orAFshFtTuk7Kpy+qsVAU/SSJy7KYA7AL1dYtXrooVxea089OyOKJAFRxUQliyYblJEnmWisn5ZcExyT0DCleo67KotjuCagl1y4dl1c42WflXNrHowHYR4pioCVxWRYLMEcWVz+pvflT61HQ3Vt4Fp3BtyX/xDo7lSnUsZCdo1HF93FUkXjxMFOA+hRtAsAJTdMOONx3DAI4BrWRRAA44nFFp6M+3ZZbcue7pUEURb9I4rIsFsW6xZWdy/y8mV/RCl238EyGXxZVcicGsWSfW+LLoBbilSwesSkS+zVNO2M3yEXTtLSmaScAHLYhiXl4szaxvP1ycGgNoFtTuuKBwKkpbd/N+lAUy75Emy6JK4XxAIA9K26QCxeAyQuN37t2LYNanJdFv1VxiUrJvkYddF6xg1atQkGICntgb61dEsC4EMbDVqekNU1LaZo2qGnaGZijiHamsosA+puUMSHrk23Uw4mRwLwfM1LEef/evAH2+EYSl2Uxi6djBZgLjpMAzFHFnjQQbxCwsvU9wPRPeGadI4OnY6Uo9aYiFqGrdPjDIT03w1CL3ByAlbKahNh/oClqmrYH9qZ8S8I4CGBQ0zTAHKksAjhZ9pqd4jNSNj+rkv4m5vabcODBzu1I4izs52n15dIgjiiaN1mvdP1m72QxDzPIJQfA+hQ01ym6JYsjPkjMrTKaGOSSfW6NFCRF5DghXshiKd2akwMSaZjLUPaX/fSJ3zstidkA3uNOb6PR+bV7bnMURUqiqiwWsc/oRWn048KFxlHQnH52TxabX8WFQSwrO+gi1INaWP+ZBF0W3aa/2Sm1JKu0VKPg0YNy1uY++tJFoiyKwZDElcI4hFJy7tM/aZyIe+t72DO7Q9NK/okF7UmFt46G/Jyorg/KMKiFNEkW/f7dUwTQ66O8q3bWAGa5jxTF8EvisiyOwpyKLuLFF+rL4tatTL7tviwmPf5cpdyJISjZ1+jLNwv1YIEML2fSJFn06wNcHsAun2VJsCNSXqWcsdNeE369XqMqinsCKYnLspgHsB3z8/m6shhv41pF92XxhFdVXGzkTjwakfPBSi0kSLJY1HW9H/Yjop2kCOCgruu7/Lam2UYKmqJXwmtjitx31ViiLor9P/poay7wR7HPKALoxfz8aF1ZvPc+9sju4mXJv4xiBzQakXOhepxJuznqCLEhF1mYs0QH0dy1i6MwRxEP+Li5ch69xw5HA7CPFMUGkhieL81Scu75+SG8fLz6a9au5VpF72TRbdlg7sTGIw6qHS6DWkgzr92iELTtQhgLHn10KRBsu67r/QHIjKAya+D1jEo2APsoRZTyKIZLElcK4xFk1+VRq8B7Mgmce4e9sfuyOI6nY/1iHamjiGlnlU4yG7HzcBDurfUpwOOqFIqjDX75svfTfh8MQhuKqcsDAA6IUe7dUKvCZKVfOIqArV/WdT2vadpBhWP19IHV7/soS8yLD9mx+wmj7X/0o2VLkpLoJuc/nBSyuHoa9JVTlEUPrzc3ZJEQEk1EJZY0zGTaSfF3q+SF+J4EkAthGU9CUbTN6I8+2tofmTN6/sMJIYsrO5KZGWDiGK947zgoyjASQohbAllTGCmEhKJISWwkjCOoDH547SdAocCr3sPrzw8l/wghhBBVwhzMEl1JBIA7v9kPYGjF7+69j3kVvcUs+UcIIYRQFH1FNtKSuCyLR2BWcjEXK8fbgA/s4FXvvSyO+6A+NCGEEEJRhLlwl5K4LIujMCsAFACYCbi3MAm3x/Sh+fWhCSGEkMiLYh5mab4iT+0KWczDTOhqhuDf/362ifc0rT40IYQQQlGkJDaSxSLu/OYeAENYu7aIrlvYJs2RRc9K/hFCCCEURZMizFyJlMTGwngEwC5cvZJnYzSFJLwr+UcIIYREXhSLMEcSKT7WZbGAubleqBVYJ/bxsj40IYQQEllRpCSqss8owgxyybIxmiqLGTYFIYQQiqI7DFESbcriPmMPmlO/lpiyOEJZJIQQQlF0nmjUb/ZGGA/AHF2kdDcHyiIhhBCKIiXR17KYwz5jF8wclAU2SFNk8QCbgRBCCEXRHkcoia4K4yj2GdthjjCOUho9ZT9L/hFCCPET8YDt7+iPPto6xNPmiTDmAOQAQETnpgH0iD+ZNNo9Mng6BuwzWF2IEEIIRVFSEvnl2RxpzMNcv3ikQhx3ij+TbCTKIiGEEIqiKkXYG4XKUxJ9KY4Q4piAWXUkJeQxKf7OkUcbsrj5qdtw+clf8bonhBASelHMwxx5Un1vL0+Vr8WxCHOaOrfq/56Olc57uThuQ9ko5C0/uzPNRjSZ3XgdS/FFrJ9MoPNsd2bLx7eNvfHVl3JsGUIIIWEWRTuCyfrNwZbIkuTUlJ1bPn5HEsCAkEmyfO2fBVMWEUIIoShWpUhJjAZvfPWlAgAGKRFCCCE+w6/pcSiJhBBCCCEUxZqSyCk3QgghhBCK4gooiYQQQgghFMVV9FMSCSGEEEIoitUkcZSnhBBCCCGEoljOQUoiIYQQQghFsZLRH3209QBPBSGEEEIIRbFSElmijBBCCCGEorgC1m8mhBBCCKEorpZEsH4zIYQQQghFEUC6UhJZdYUQQgghhKJYThFmGhxKIiGEEEIIRREAcASL8wWw6gohhBBCCCGEEEIIIYQQQgghhBBCCCGEEEIIIYQQQgghhBBCCCGEEEIIIYQQQgghhBBCCCGEEEIIIYQQQgghhBBCCCGEEEIIIYQQQvzF/wd21FMVXDeqTwAAAABJRU5ErkJggg==;" vertex="1" parent="1">
          <mxGeometry x="170" y="258.39" width="117.08" height="43.23" as="geometry" />
        </mxCell>
      </root>
    </mxGraphModel>
  </diagram>
</mxfile>
